<svg style="position:absolute;width:0;height:0" xmlns="http://www.w3.org/2000/svg" overflow="hidden">
<defs>

<!-- wallets icons -->
<symbol id="wallets-bitcoin" width="48" height="48" viewBox="0 0 48 48">
<path d="M47.2816 29.8059C44.0758 42.663 31.0521 50.4877 18.192 47.2815C5.33717 44.076 -2.48842 31.0531 0.718921 18.1968C3.92326 5.33814 16.9469 -2.48728 29.8033 0.71819C42.6626 3.92366 50.4875 16.948 47.2816 29.8059Z" fill="#0D6EFD"/>
<path d="M34.5828 20.581C35.0606 17.3876 32.6288 15.6708 29.3037 14.5256L30.3823 10.1996L27.7488 9.54338L26.6987 13.7553C26.0064 13.5828 25.2953 13.4201 24.5887 13.2588L25.6463 9.01913L23.0143 8.36288L21.935 12.6873C21.3619 12.5568 20.7993 12.4279 20.2533 12.2921L20.2563 12.2786L16.6244 11.3718L15.9238 14.1843C15.9238 14.1843 17.8778 14.6321 17.8365 14.6598C18.9031 14.9261 19.0959 15.6318 19.0636 16.1913L17.835 21.1195C17.9085 21.1383 18.0038 21.1653 18.1088 21.2073C18.0211 21.1855 17.9273 21.1615 17.8305 21.1383L16.1083 28.0419C15.9778 28.3659 15.6471 28.8519 14.9015 28.6674C14.9277 28.7057 12.9873 28.1897 12.9873 28.1897L11.6799 31.2039L15.107 32.0581C15.7446 32.2179 16.3694 32.3851 16.9844 32.5426L15.8946 36.9181L18.5251 37.5743L19.6045 33.2454C20.323 33.4404 21.0206 33.6204 21.7032 33.7899L20.6276 38.0986L23.2611 38.7548L24.351 34.3876C28.8417 35.2374 32.2186 34.8946 33.64 30.8334C34.7853 27.5634 33.5829 25.6772 31.2202 24.4472C32.9409 24.0505 34.237 22.9188 34.5828 20.581ZM28.5657 29.0177C27.7518 32.2877 22.2455 30.5199 20.4603 30.0767L21.9065 24.28C23.6916 24.7255 29.4162 25.6075 28.5657 29.0177ZM29.3802 20.5338C28.6377 23.5082 24.0547 21.997 22.568 21.6265L23.8792 16.3691C25.3658 16.7396 30.1536 17.431 29.3802 20.5338Z" fill="#F8F9FA"/>
</symbol>
<symbol id="wallets-litecoin" width="48" height="48" viewBox="0 0 48 48">
<g clip-path="url(#clip0_9_643)">
<path d="M24 45.4024C35.8202 45.4024 45.4024 35.8202 45.4024 24C45.4024 12.1798 35.8202 2.59756 24 2.59756C12.1798 2.59756 2.59758 12.1798 2.59758 24C2.59758 35.8202 12.1798 45.4024 24 45.4024Z" fill="#F8F9FA"/>
<path d="M24 0C19.2532 0 14.6131 1.40758 10.6663 4.04473C6.71953 6.68188 3.64339 10.4302 1.82688 14.8156C0.0103797 19.201 -0.4649 24.0266 0.461145 28.6822C1.38719 33.3377 3.67297 37.6141 7.02943 40.9706C10.3859 44.327 14.6623 46.6128 19.3178 47.5388C23.9734 48.4649 28.799 47.9896 33.1844 46.1731C37.5698 44.3566 41.3181 41.2805 43.9553 37.3337C46.5924 33.3869 48 28.7468 48 24C48.0092 20.8574 47.3993 17.7438 46.2051 14.837C45.011 11.9301 43.256 9.2869 41.0403 7.05829C38.8247 4.82968 36.1917 3.05931 33.2919 1.84824C30.392 0.637178 27.282 0.00914422 24.1395 0H24ZM24.4068 24.8136L21.908 33.2397H35.2736C35.3621 33.2366 35.4504 33.251 35.5334 33.282C35.6164 33.3131 35.6924 33.3601 35.7572 33.4206C35.8219 33.481 35.8742 33.5537 35.9108 33.6343C35.9475 33.7149 35.9679 33.802 35.9709 33.8906V34.1114L34.8087 38.1211C34.7575 38.3107 34.6433 38.4772 34.4849 38.5934C34.3265 38.7096 34.1333 38.7684 33.937 38.7603H13.4818L16.9104 27.0799L13.0751 28.2421L13.9467 25.569L17.7821 24.4068L22.6053 8.01937C22.6584 7.83081 22.7731 7.66545 22.931 7.5496C23.089 7.43376 23.2812 7.37411 23.477 7.38015H28.6489C28.7374 7.37704 28.8257 7.39142 28.9087 7.42245C28.9917 7.45349 29.0677 7.50058 29.1325 7.56102C29.1972 7.62147 29.2495 7.69409 29.2861 7.77473C29.3228 7.85537 29.3432 7.94245 29.3462 8.03099V8.25182L25.2784 22.0823L29.1138 20.9201L28.3002 23.7094L24.4068 24.8136Z" fill="#0D6EFD"/>
</g>
<defs>
<clipPath id="clip0_9_643">
<rect width="48" height="48" fill="white"/>
</clipPath>
</defs>
</symbol>
<symbol id="wallets-dogecoin" width="48" height="48" viewBox="0 0 48 48">
<path d="M24.576 15.816H21.1469V22.5766H26.5418V25.4071H21.1469V32.1672H24.744C25.6682 32.1672 32.3318 32.2716 32.3215 24.3019C32.3112 16.3322 25.8586 15.816 24.576 15.816Z" fill="#0D6EFD"/>
<path d="M24 0C10.745 0 0 10.745 0 24C0 37.255 10.745 48 24 48C37.255 48 48 37.255 48 24C48 10.745 37.255 0 24 0ZM24.943 36.9624H16.2514V25.4074H13.1875V22.5768H16.2511V11.021H23.7108C25.4755 11.021 37.1642 10.6546 37.1642 24.2086C37.1642 37.9867 24.9432 36.9624 24.9432 36.9624H24.943Z" fill="#0D6EFD"/>
</symbol>

<symbol id="wallets-usdt" width="48" height="48" viewBox="0 0 1012.26 834.15">
<g id="Layer_2" data-name="Layer 2"><g id="Layer_1-2" data-name="Layer 1"><path d="M834.16,417.08c0,230.35-186.73,417.07-417.08,417.07S0,647.43,0,417.08,186.73,0,417.08,0,834.16,186.73,834.16,417.08Z" style="fill:#0d6efd"/><path d="M612.82,210.32H217.89v95.34H367.68V445.8H463V305.66H612.81V210.32Z" style="fill:#fff"/><path d="M416.26,460.72c-123.91,0-224.38-19.61-224.38-43.81S292.34,373.1,416.26,373.1s224.37,19.61,224.37,43.81S540.17,460.72,416.26,460.72Zm251.93-36.5c0-31.2-112.79-56.48-251.93-56.48S164.32,393,164.32,424.22c0,27.47,87.47,50.36,203.37,55.43V680.82H463V479.73c116.79-4.91,205.17-27.9,205.17-55.51Z" style="fill:#fff"/><ellipse cx="764.85" cy="431.23" rx="237.41" ry="237.8" style="fill:#0d6efd"/><path d="M764.85,679a247.87,247.87,0,0,1-175-423A247.6,247.6,0,0,1,939.8,606.45,245.57,245.57,0,0,1,764.85,679Zm0-475.6c-125.39,0-227.41,102.19-227.41,227.8S639.45,659,764.85,659s227.41-102.19,227.41-227.8-102-227.8-227.41-227.8Z" style="fill:#fff"/><path d="M923.12,388c-14.84-13.72-35.36-34.68-52.08-49.54l-1-.69a18.89,18.89,0,0,0-5.49-3.07h0c-40.31-7.53-227.91-42.65-231.57-42.21a6.88,6.88,0,0,0-2.87,1.09l-.94.74a11,11,0,0,0-2.57,4.16l-.25.64v4.06c21.12,58.9,104.51,251.87,120.93,297.15,1,3.07,2.87,8.92,6.38,9.22h.79c1.88,0,9.89-10.6,9.89-10.6S907.59,425,922.08,406.47a46.37,46.37,0,0,0,4.94-7.33,11.91,11.91,0,0,0-3.91-11.09h0Zm-122,20.26,61.13-50.78,35.86,33.09ZM777.37,405l-105.25-86.4L842.41,350l-65,54.94Zm9.5,22.64,107.72-17.39L771.43,558.86l15.44-131.24Zm-129-100.42,110.74,94.13L752.54,559,657.82,327.2Z" style="fill:#fff"/></g></g>
</symbol>

<symbol id="wallets-ethereum" width="48" height="48" >
<path style=" stroke:none;fill-rule:nonzero;fill:rgb(5.098039%,43.137255%,99.215686%);fill-opacity:1;" d="M 23.976562 0.480469 L 8.042969 24.035156 L 23.976562 33.054688 L 39.992188 24.035156 Z M 23.976562 0.480469 "/>
<path style=" stroke:none;fill-rule:nonzero;fill:rgb(5.098039%,43.137255%,99.215686%);fill-opacity:1;" d="M 7.8125 26.1875 L 23.976562 35.226562 L 40.191406 26.121094 L 23.976562 47.519531 Z M 7.8125 26.1875 "/>
</symbol>

<symbol id="wallets-eth-usdt" width="48" height="48" viewBox="0 0 120 98" fill="none" >
<g clip-path="url(#clip0_603_859)">
<path d="M98.8868 49.0006C98.8868 76.0632 76.7506 98 49.4434 98C22.1362 98 0 76.0632 0 49.0006C0 21.9379 22.1362 0 49.4434 0C76.7506 0 98.8868 21.9379 98.8868 49.0006Z" fill="#0D6EFD"/>
<path d="M72.6477 24.7094H25.8301V35.9104H43.5872V52.3747H54.8894V35.9104H72.6465V24.7094H72.6477Z" fill="white"/>
<path d="M49.3461 54.1276C34.657 54.1276 22.7466 51.8237 22.7466 48.9806C22.7466 46.1375 34.6558 43.8336 49.3461 43.8336C64.0364 43.8336 75.9444 46.1375 75.9444 48.9806C75.9444 51.8237 64.0352 54.1276 49.3461 54.1276ZM79.2116 49.8394C79.2116 46.1739 65.8407 43.2039 49.3461 43.2039C32.8516 43.2039 19.4795 46.1751 19.4795 49.8394C19.4795 53.0667 29.8488 55.7559 43.5883 56.3516V79.986H54.8905V56.361C68.7356 55.7841 79.2128 53.0832 79.2128 49.8394H79.2116Z" fill="white"/>
<path d="M90.6705 78.6009C106.214 78.6009 118.815 66.0927 118.815 50.663C118.815 35.2333 106.214 22.7251 90.6705 22.7251C75.1269 22.7251 62.5264 35.2333 62.5264 50.663C62.5264 66.0927 75.1269 78.6009 90.6705 78.6009Z" fill="#0D6EFD"/>
<path d="M90.6704 79.7758C82.8357 79.7758 75.4704 76.747 69.9307 71.2487C64.391 65.7504 61.3408 58.4393 61.3408 50.6642C61.3408 42.889 64.391 35.578 69.9307 30.0797C75.4704 24.5802 82.8357 21.5526 90.6704 21.5526C98.5052 21.5526 105.87 24.5814 111.41 30.0797C116.95 35.578 120 42.889 120 50.6642C120 58.4393 116.95 65.7504 111.41 71.2487C105.87 76.7482 98.5052 79.7758 90.6704 79.7758ZM90.6704 23.9C75.8059 23.9 63.7118 35.9057 63.7118 50.663C63.7118 65.4203 75.8047 77.4261 90.6704 77.4261C105.536 77.4261 117.629 65.4203 117.629 50.663C117.629 35.9057 105.535 23.9 90.6704 23.9Z" fill="white"/>
<g clip-path="url(#clip1_603_859)">
<path d="M90.6667 30.1642L90.3916 31.0985V58.2084L90.6667 58.4828L103.251 51.0444L90.6667 30.1642Z" fill="white"/>
<path d="M90.6667 30.1642L78.0825 51.0444L90.6667 58.4828V45.3244V30.1642Z" fill="white"/>
<path d="M90.6667 60.8653L90.5117 61.0544V70.7113L90.6667 71.1639L103.258 53.4308L90.6667 60.8653Z" fill="white"/>
<path d="M90.6667 71.1639V60.8653L78.0825 53.4308L90.6667 71.1639Z" fill="white"/>
<path d="M90.6667 58.4828L103.251 51.0444L90.6667 45.3244V58.4828Z" fill="white"/>
<path d="M78.0825 51.0444L90.6667 58.4828V45.3244L78.0825 51.0444Z" fill="white"/>
</g>
</g>
<defs>
<clipPath id="clip0_603_859">
<rect width="120" height="98" fill="white"/>
</clipPath>
<clipPath id="clip1_603_859">
<rect width="41" height="41" fill="white" transform="translate(70.1704 30.1642)"/>
</clipPath>
</defs>
</symbol>

<symbol id="wallets-eth-usdc" width="48" height="48"   viewBox="0 0 120 98" fill="none" >
<g clip-path="url(#clip0_603_885)">
<path d="M98.9435 49.0006C98.9435 76.0632 76.8073 98 49.5001 98C22.1928 98 0.0566406 76.0632 0.0566406 49.0006C0.0566406 21.9379 22.1928 0 49.5001 0C76.8073 0 98.9435 21.9379 98.9435 49.0006Z" fill="#0D6EFD"/>
<path d="M64.3748 57.2332C64.3748 49.65 59.7811 47.05 50.5936 45.9668C44.0311 45.1 42.7186 43.3668 42.7186 40.3332C42.7186 37.2995 44.9063 35.35 49.2811 35.35C53.2186 35.35 55.4063 36.65 56.4998 39.9C56.7188 40.55 57.375 40.9832 58.0313 40.9832H61.5309C62.4061 40.9832 63.0623 40.3332 63.0623 39.4668V39.25C62.1872 34.4832 58.2497 30.8 53.2186 30.3668V25.1668C53.2186 24.3 52.5623 23.65 51.4688 23.4332H48.1875C47.3123 23.4332 46.6561 24.0832 46.4372 25.1668V30.15C39.8747 31.0168 35.7187 35.35 35.7187 40.7668C35.7187 47.9168 40.0936 50.7332 49.2811 51.8169C55.4063 52.9 57.375 54.2 57.375 57.6669C57.375 61.1337 54.3121 63.5169 50.1562 63.5169C44.4684 63.5169 42.4997 61.1332 41.8434 57.8832C41.625 57.0168 40.9687 56.5832 40.3125 56.5832H36.5934C35.7188 56.5832 35.0625 57.2332 35.0625 58.1V58.3169C35.9371 63.7332 39.4373 67.6332 46.6561 68.7169V73.9169C46.6561 74.7832 47.3123 75.4332 48.4059 75.65H51.6871C52.5623 75.65 53.2186 75 53.4375 73.9169V68.7169C60 67.6332 64.3748 63.0832 64.3748 57.2332Z" fill="white"/>
<path d="M60.6561 79.9832C77.7186 73.9169 86.4688 55.0669 80.1247 38.3832C76.8435 29.2832 69.6247 22.35 60.6561 19.1C59.781 18.6669 59.3436 18.0169 59.3436 16.9332V13.9C59.3436 13.0332 59.781 12.3832 60.6561 12.1669C60.8751 12.1669 61.3124 12.1669 61.5313 12.3832C82.3124 18.8832 93.6876 40.7669 87.1251 61.35C83.1876 73.4832 73.7811 82.8 61.5313 86.7C60.6561 87.1332 59.781 86.7 59.5626 85.8332C59.3436 85.6169 59.3436 85.4 59.3436 84.9669V81.9332C59.3436 81.2832 59.9999 80.4169 60.6561 79.9832ZM37.4685 12.3832C38.3436 11.95 39.2188 12.3832 39.4372 13.25C39.6561 13.4669 39.6561 13.6832 39.6561 14.1169V17.15C39.6561 18.0169 38.9999 18.8832 38.3436 19.3169C21.2811 25.3832 12.531 44.2332 18.8751 60.9169C22.1563 70.0169 29.3751 76.95 38.3436 80.2C39.2188 80.6332 39.6561 81.2832 39.6561 82.3669V85.4C39.6561 86.2669 39.2188 86.9169 38.3436 87.1332C38.1247 87.1332 37.6874 87.1332 37.4685 86.9169C16.6874 80.4169 5.31221 58.5332 11.8747 37.95C15.8122 25.6 25.4376 16.2832 37.4685 12.3832Z" fill="white"/>
<path d="M90.6705 78.6009C106.214 78.6009 118.815 66.0927 118.815 50.663C118.815 35.2333 106.214 22.7251 90.6705 22.7251C75.1269 22.7251 62.5264 35.2333 62.5264 50.663C62.5264 66.0927 75.1269 78.6009 90.6705 78.6009Z" fill="#0D6EFD"/>
<path d="M90.6704 79.7758C82.8357 79.7758 75.4704 76.747 69.9307 71.2487C64.391 65.7504 61.3408 58.4393 61.3408 50.6642C61.3408 42.889 64.391 35.578 69.9307 30.0797C75.4704 24.5802 82.8357 21.5526 90.6704 21.5526C98.5052 21.5526 105.87 24.5814 111.41 30.0797C116.95 35.578 120 42.889 120 50.6642C120 58.4393 116.95 65.7504 111.41 71.2487C105.87 76.7482 98.5052 79.7758 90.6704 79.7758ZM90.6704 23.9C75.8059 23.9 63.7118 35.9057 63.7118 50.663C63.7118 65.4203 75.8047 77.4261 90.6704 77.4261C105.536 77.4261 117.629 65.4203 117.629 50.663C117.629 35.9057 105.535 23.9 90.6704 23.9Z" fill="white"/>
<g clip-path="url(#clip1_603_885)">
<path d="M90.6667 30.1642L90.3916 31.0985V58.2084L90.6667 58.4828L103.251 51.0444L90.6667 30.1642Z" fill="white"/>
<path d="M90.6667 30.1642L78.0825 51.0444L90.6667 58.4828V45.3244V30.1642Z" fill="white"/>
<path d="M90.6667 60.8653L90.5117 61.0544V70.7113L90.6667 71.1639L103.258 53.4308L90.6667 60.8653Z" fill="white"/>
<path d="M90.6667 71.1639V60.8653L78.0825 53.4308L90.6667 71.1639Z" fill="white"/>
<path d="M90.6667 58.4828L103.251 51.0444L90.6667 45.3244V58.4828Z" fill="white"/>
<path d="M78.0825 51.0444L90.6667 58.4828V45.3244L78.0825 51.0444Z" fill="white"/>
</g>
</g>
<defs>
<clipPath id="clip0_603_885">
<rect width="120" height="98" fill="white"/>
</clipPath>
<clipPath id="clip1_603_885">
<rect width="41" height="41" fill="white" transform="translate(70.1704 30.1642)"/>
</clipPath>
</defs>
</symbol>

<symbol id="wallets-monero" width="48" height="48" viewBox="0 0 3756.09 3756.49"><title>monero</title><path d="M4128,2249.81C4128,3287,3287.26,4127.86,2250,4127.86S372,3287,372,2249.81,1212.76,371.75,2250,371.75,4128,1212.54,4128,2249.81Z" transform="translate(-371.96 -371.75)" style="fill:#fff"/><path id="_149931032" data-name=" 149931032" d="M2250,371.75c-1036.89,0-1879.12,842.06-1877.8,1878,0.26,207.26,33.31,406.63,95.34,593.12h561.88V1263L2250,2483.57,3470.52,1263v1579.9h562c62.12-186.48,95-385.85,95.37-593.12C4129.66,1212.76,3287,372,2250,372Z" transform="translate(-371.96 -371.75)" style="fill:#0d6efd"/><path id="_149931160" data-name=" 149931160" d="M1969.3,2764.17l-532.67-532.7v994.14H1029.38l-384.29.07c329.63,540.8,925.35,902.56,1604.91,902.56S3525.31,3766.4,3855,3225.6H3063.25V2231.47l-532.7,532.7-280.61,280.61-280.62-280.61h0Z" transform="translate(-371.96 -371.75)" style="fill:#0d6efd"/></symbol>


<symbol id="wallets-usdc" width="48" height="48" viewBox="0 0 120 98" fill="none" >
<g clip-path="url(#clip0_603_877)">
<path d="M98.8868 49.0006C98.8868 76.0632 76.7506 98 49.4434 98C22.1362 98 0 76.0632 0 49.0006C0 21.9379 22.1362 0 49.4434 0C76.7506 0 98.8868 21.9379 98.8868 49.0006Z" fill="#0D6EFD"/>
<path d="M64.0916 57.0748C64.0916 49.6375 59.5854 47.0875 50.5729 46.0251C44.1354 45.175 42.8479 43.4751 42.8479 40.4998C42.8479 37.5245 44.9939 35.6125 49.2854 35.6125C53.1479 35.6125 55.2939 36.8875 56.3666 40.075C56.5814 40.7125 57.2251 41.1373 57.8689 41.1373H61.3019C62.1604 41.1373 62.8041 40.4998 62.8041 39.6501V39.4375C61.9456 34.7623 58.0831 31.15 53.1479 30.7251V25.6251C53.1479 24.775 52.5041 24.1375 51.4314 23.9248H48.2126C47.3541 23.9248 46.7104 24.5623 46.4956 25.6251V30.5125C40.0581 31.3626 35.9814 35.6125 35.9814 40.9251C35.9814 47.9376 40.2729 50.6998 49.2854 51.7627C55.2939 52.825 57.2251 54.1 57.2251 57.5002C57.2251 60.9003 54.2206 63.2377 50.1439 63.2377C44.5644 63.2377 42.6331 60.8998 41.9894 57.7123C41.7751 56.8626 41.1314 56.4373 40.4876 56.4373H36.8394C35.9814 56.4373 35.3376 57.0748 35.3376 57.925V58.1377C36.1956 63.4498 39.6291 67.2748 46.7104 68.3377V73.4377C46.7104 74.2873 47.3541 74.9248 48.4269 75.1375H51.6456C52.5041 75.1375 53.1479 74.5 53.3626 73.4377V68.3377C59.8001 67.2748 64.0916 62.8123 64.0916 57.0748Z" fill="white"/>
<path d="M60.4437 79.3873C77.1812 73.4377 85.7647 54.9502 79.5415 38.5873C76.3227 29.6623 69.2415 22.8625 60.4437 19.675C59.5852 19.2502 59.1562 18.6127 59.1562 17.5498V14.575C59.1562 13.7248 59.5852 13.0873 60.4437 12.8752C60.6585 12.8752 61.0875 12.8752 61.3022 13.0873C81.6875 19.4623 92.846 40.9252 86.4085 61.1125C82.546 73.0123 73.3187 82.15 61.3022 85.975C60.4437 86.3998 59.5852 85.975 59.371 85.1248C59.1562 84.9127 59.1562 84.7 59.1562 84.2752V81.2998C59.1562 80.6623 59.8 79.8127 60.4437 79.3873ZM37.6977 13.0873C38.5562 12.6625 39.4147 13.0873 39.629 13.9375C39.8437 14.1502 39.8437 14.3623 39.8437 14.7877V17.7625C39.8437 18.6127 39.2 19.4623 38.5562 19.8877C21.8187 25.8373 13.2352 44.3248 19.4585 60.6877C22.6772 69.6127 29.7585 76.4125 38.5562 79.6C39.4147 80.0248 39.8437 80.6623 39.8437 81.7252V84.7C39.8437 85.5502 39.4147 86.1877 38.5562 86.3998C38.3415 86.3998 37.9125 86.3998 37.6977 86.1877C17.3125 79.8127 6.15396 58.3498 12.5915 38.1625C16.454 26.05 25.896 16.9123 37.6977 13.0873Z" fill="white"/>
<path d="M90.6705 78.6009C106.214 78.6009 118.815 66.0927 118.815 50.663C118.815 35.2333 106.214 22.7251 90.6705 22.7251C75.1269 22.7251 62.5264 35.2333 62.5264 50.663C62.5264 66.0927 75.1269 78.6009 90.6705 78.6009Z" fill="#0D6EFD"/>
<path d="M90.6704 79.7758C82.8357 79.7758 75.4704 76.747 69.9307 71.2487C64.391 65.7504 61.3408 58.4393 61.3408 50.6642C61.3408 42.889 64.391 35.578 69.9307 30.0797C75.4704 24.5802 82.8357 21.5526 90.6704 21.5526C98.5052 21.5526 105.87 24.5814 111.41 30.0797C116.95 35.578 120 42.889 120 50.6642C120 58.4393 116.95 65.7504 111.41 71.2487C105.87 76.7482 98.5052 79.7758 90.6704 79.7758ZM90.6704 23.9C75.8059 23.9 63.7118 35.9057 63.7118 50.663C63.7118 65.4203 75.8047 77.4261 90.6704 77.4261C105.536 77.4261 117.629 65.4203 117.629 50.663C117.629 35.9057 105.535 23.9 90.6704 23.9Z" fill="white"/>
<path d="M109.433 45.5888C107.674 43.9769 105.241 41.5145 103.259 39.7686L103.142 39.6876C102.947 39.5325 102.727 39.4103 102.491 39.3269C97.7121 38.4422 75.4728 34.3162 75.0389 34.3679C74.9168 34.3843 74.8006 34.4289 74.6987 34.4959L74.5872 34.5828C74.4497 34.7215 74.3454 34.8883 74.2826 35.0716L74.2529 35.1468V35.6238C76.7566 42.5436 86.6422 65.2147 88.5888 70.5344C88.7061 70.8951 88.929 71.5824 89.3451 71.6176H89.4388C89.6616 71.6176 90.6112 70.3723 90.6112 70.3723C90.6112 70.3723 107.592 49.9311 109.31 47.7541C109.532 47.4862 109.728 47.1972 109.895 46.8929C109.939 46.6544 109.918 46.4089 109.837 46.181C109.756 45.953 109.617 45.7486 109.432 45.59L109.433 45.5888ZM94.969 47.9691L102.216 42.0032L106.467 45.8908L94.969 47.9691ZM92.1547 47.579L79.6776 37.4283L99.8649 41.1244L92.1558 47.579H92.1547ZM93.2808 50.2389L106.051 48.1958L91.4505 65.6576L93.2808 50.2389ZM77.9836 38.4411L91.1114 49.4999L89.2111 65.6682L77.9824 38.4411H77.9836Z" fill="white"/>
</g>
<defs>
<clipPath id="clip0_603_877">
<rect width="120" height="98" fill="white"/>
</clipPath>
</defs>
</symbol>

<symbol id="wallets-tron" viewBox="-8 -8 48 48" style="enable-background:new 0 0 32 32;"> <g> <circle fill="#0D6EFD" cx="16" cy="16" r="24"/> <path fill="#FFFFFF" d="M24.9,6.9l-21.6-4l11.4,28.7l15.9-19.3C30.5,12.2,24.9,6.9,24.9,6.9z M24.5,8.6l3.3,3.1l-9.1,1.6L24.5,8.6z M16.8,13.1L7.3,5.2L22.9,8L16.8,13.1z M16.2,14.5l-1.6,12.9L6.2,6.2L16.2,14.5L16.2,14.5z M17.6,15.2l10-1.8l-11.5,14 C16.1,27.4,17.6,15.2,17.6,15.2z"/> </g> </symbol>

<!-- menu icons -->

<symbol id="menu-payouts" width="34" height="31" viewBox="0 0 34 31" fill="none" >
<path fill-rule="evenodd" clip-rule="evenodd" d="M15.2981 2.33954C15.811 2.33954 16.2268 2.75537 16.2268 3.26833V27.4168C16.2268 27.9298 15.811 28.3456 15.2981 28.3456C14.7851 28.3456 14.3693 27.9298 14.3693 27.4168V3.26833C14.3693 2.75537 14.7851 2.33954 15.2981 2.33954Z" fill="#0D6EFD"/>
<path fill-rule="evenodd" clip-rule="evenodd" d="M9.03558 6.75813C10.0807 5.71304 11.4981 5.12592 12.9761 5.12592H17.1556C17.8875 5.12592 18.6121 5.27006 19.2882 5.55011C19.9644 5.83017 20.5787 6.24066 21.0962 6.75813C21.6136 7.27561 22.0241 7.88994 22.3042 8.56606C22.5842 9.24217 22.7284 9.96683 22.7284 10.6987C22.7284 11.2116 22.3126 11.6274 21.7996 11.6274C21.2866 11.6274 20.8708 11.2116 20.8708 10.6987C20.8708 10.2108 20.7747 9.72767 20.588 9.27692C20.4013 8.82618 20.1276 8.41662 19.7827 8.07164C19.4377 7.72665 19.0281 7.453 18.5774 7.26629C18.1266 7.07959 17.6435 6.98349 17.1556 6.98349H12.9761C11.9908 6.98349 11.0458 7.37491 10.3491 8.07164C9.65236 8.76837 9.26094 9.71333 9.26094 10.6987C9.26094 11.684 9.65236 12.6289 10.3491 13.3257C11.0458 14.0224 11.9908 14.4138 12.9761 14.4138H18.0844C19.5624 14.4138 20.9799 15.0009 22.025 16.046C23.07 17.0911 23.6572 18.5086 23.6572 19.9865C23.6572 21.4645 23.07 22.882 22.025 23.9271C20.9799 24.9722 19.5624 25.5593 18.0844 25.5593H12.5117C11.0337 25.5593 9.61627 24.9722 8.57118 23.9271C7.52609 22.882 6.93896 21.4645 6.93896 19.9865C6.93896 19.4736 7.3548 19.0578 7.86775 19.0578C8.38071 19.0578 8.79654 19.4736 8.79654 19.9865C8.79654 20.9719 9.18796 21.9168 9.88469 22.6136C10.5814 23.3103 11.5264 23.7017 12.5117 23.7017H18.0844C19.0698 23.7017 20.0147 23.3103 20.7115 22.6136C21.4082 21.9168 21.7996 20.9719 21.7996 19.9865C21.7996 19.0012 21.4082 18.0563 20.7115 17.3595C20.0147 16.6628 19.0698 16.2714 18.0844 16.2714H12.9761C11.4981 16.2714 10.0807 15.6843 9.03558 14.6392C7.99049 13.5941 7.40336 12.1766 7.40336 10.6987C7.40336 9.22067 7.99049 7.80322 9.03558 6.75813Z" fill="#0D6EFD"/>
<path fill-rule="evenodd" clip-rule="evenodd" d="M28.3386 0.72927C28.5977 0.399529 29.0178 0.399529 29.2769 0.72927L33.2576 5.79539C33.5167 6.12513 33.5167 6.65975 33.2576 6.98949C32.9985 7.31923 32.5784 7.31923 32.3193 6.98949L28.8077 2.52041L25.2962 6.98949C25.0371 7.31923 24.617 7.31923 24.3579 6.98949C24.0988 6.65975 24.0988 6.12513 24.3579 5.79539L28.3386 0.72927Z" fill="#0D6EFD"/>
<rect x="27.8236" y="2.33954" width="1.96832" height="12.1591" rx="0.984161" fill="#0D6EFD"/>
</symbol>



<symbol id="wallets-bnb" width="48" height="48" viewBox="0 0 2496 2496">
<path style="fill-rule:evenodd;clip-rule:evenodd;fill:#0D6EFD;" d="M1248,0c689.3,0,1248,558.7,1248,1248s-558.7,1248-1248,1248   S0,1937.3,0,1248S558.7,0,1248,0L1248,0z"/>
	<path style="fill:#FFFFFF;" d="M685.9,1248l0.9,330l280.4,165v193.2l-444.5-260.7v-524L685.9,1248L685.9,1248z M685.9,918v192.3   l-163.3-96.6V821.4l163.3-96.6l164.1,96.6L685.9,918L685.9,918z M1084.3,821.4l163.3-96.6l164.1,96.6L1247.6,918L1084.3,821.4   L1084.3,821.4z"/>
	<path style="fill:#FFFFFF;" d="M803.9,1509.6v-193.2l163.3,96.6v192.3L803.9,1509.6L803.9,1509.6z M1084.3,1812.2l163.3,96.6   l164.1-96.6v192.3l-164.1,96.6l-163.3-96.6V1812.2L1084.3,1812.2z M1645.9,821.4l163.3-96.6l164.1,96.6v192.3l-164.1,96.6V918   L1645.9,821.4L1645.9,821.4L1645.9,821.4z M1809.2,1578l0.9-330l163.3-96.6v524l-444.5,260.7v-193.2L1809.2,1578L1809.2,1578   L1809.2,1578z"/>
	<polygon style="fill:#FFFFFF;" points="1692.1,1509.6 1528.8,1605.3 1528.8,1413 1692.1,1316.4 1692.1,1509.6  "/>
	<path style="fill:#FFFFFF;" d="M1692.1,986.4l0.9,193.2l-281.2,165v330.8l-163.3,95.7l-163.3-95.7v-330.8l-281.2-165V986.4   L968,889.8l279.5,165.8l281.2-165.8l164.1,96.6H1692.1L1692.1,986.4z M803.9,656.5l443.7-261.6l444.5,261.6l-163.3,96.6   l-281.2-165.8L967.2,753.1L803.9,656.5L803.9,656.5z"/>
</symbol>

<symbol id="wallets-bnb-usdt" width="48" height="48" viewBox="0 0 120 98">
<path d="M98.8868 49.0006C98.8868 76.0632 76.7506 98 49.4434 98C22.1362 98 0 76.0632 0 49.0006C0 21.9379 22.1362 0 49.4434 0C76.7506 0 98.8868 21.9379 98.8868 49.0006Z" fill="#0D6EFD"/>
<path d="M72.6477 24.7094H25.8301V35.9104H43.5872V52.3747H54.8894V35.9104H72.6465V24.7094H72.6477Z" fill="white"/>
<path d="M49.3461 54.1276C34.657 54.1276 22.7466 51.8237 22.7466 48.9806C22.7466 46.1375 34.6558 43.8336 49.3461 43.8336C64.0364 43.8336 75.9444 46.1375 75.9444 48.9806C75.9444 51.8237 64.0352 54.1276 49.3461 54.1276ZM79.2116 49.8394C79.2116 46.1739 65.8407 43.2039 49.3461 43.2039C32.8516 43.2039 19.4795 46.1751 19.4795 49.8394C19.4795 53.0667 29.8488 55.7559 43.5883 56.3516V79.986H54.8905V56.361C68.7356 55.7841 79.2128 53.0832 79.2128 49.8394H79.2116Z" fill="white"/>
<path d="M90.6705 78.6009C106.214 78.6009 118.815 66.0927 118.815 50.663C118.815 35.2333 106.214 22.7251 90.6705 22.7251C75.1269 22.7251 62.5264 35.2333 62.5264 50.663C62.5264 66.0927 75.1269 78.6009 90.6705 78.6009Z" fill="#0D6EFD"/>
<path d="M90.6704 79.7758C82.8357 79.7758 75.4704 76.747 69.9307 71.2487C64.391 65.7504 61.3408 58.4393 61.3408 50.6642C61.3408 42.889 64.391 35.578 69.9307 30.0797C75.4704 24.5802 82.8357 21.5526 90.6704 21.5526C98.5052 21.5526 105.87 24.5814 111.41 30.0797C116.95 35.578 120 42.889 120 50.6642C120 58.4393 116.95 65.7504 111.41 71.2487C105.87 76.7482 98.5052 79.7758 90.6704 79.7758ZM90.6704 23.9C75.8059 23.9 63.7118 35.9057 63.7118 50.663C63.7118 65.4203 75.8047 77.4261 90.6704 77.4261C105.536 77.4261 117.629 65.4203 117.629 50.663C117.629 35.9057 105.535 23.9 90.6704 23.9Z" fill="white"/>
<path d="M78.2723 50.6642L78.2921 57.9429L84.4768 61.5823V65.8436L74.6726 60.0934V48.5357L78.2723 50.6642ZM78.2723 43.3854V47.627L74.6704 45.4963V41.2548L78.2723 39.1241L81.8918 41.2548L78.2723 43.3854ZM87.0597 41.2548L90.6616 39.1241L94.2811 41.2548L90.6616 43.3854L87.0597 41.2548Z" fill="white"/>
<path d="M80.875 56.4342V52.1729L84.4769 54.3035V58.5451L80.875 56.4342ZM87.0597 63.1086L90.6616 65.2393L94.2811 63.1086V67.3501L90.6616 69.4808L87.0597 67.3501V63.1086ZM99.4468 41.2548L103.049 39.1241L106.668 41.2548V45.4963L103.049 47.627V43.3855L99.4468 41.2548ZM103.049 57.9429L103.069 50.6642L106.67 48.5335V60.0912L96.8661 65.8414V61.5801L103.049 57.9429Z" fill="white"/>
<path d="M100.466 56.4342L96.864 58.545V54.3035L100.466 52.1729V56.4342Z" fill="white"/>
<path d="M100.466 44.8941L100.486 49.1555L94.2833 52.7948V60.0912L90.6814 62.202L87.0796 60.0912V52.7948L80.8772 49.1555V44.8941L84.4945 42.7634L90.6594 46.4204L96.8617 42.7634L100.481 44.8941H100.466ZM80.875 37.6176L90.6616 31.8475L100.466 37.6176L96.8639 39.7483L90.6616 36.0913L84.4769 39.7483L80.875 37.6176Z" fill="white"/>
</symbol>

<symbol id="wallets-bnb-usdc" width="48" height="48" viewBox="0 0 120 98">
<path d="M98.9435 49.0006C98.9435 76.0632 76.8073 98 49.5001 98C22.1928 98 0.0566406 76.0632 0.0566406 49.0006C0.0566406 21.9379 22.1928 0 49.5001 0C76.8073 0 98.9435 21.9379 98.9435 49.0006Z" fill="#0D6EFD"/>
<path d="M64.3748 57.2332C64.3748 49.65 59.7811 47.05 50.5936 45.9668C44.0311 45.1 42.7186 43.3668 42.7186 40.3332C42.7186 37.2995 44.9063 35.35 49.2811 35.35C53.2186 35.35 55.4063 36.65 56.4998 39.9C56.7188 40.55 57.375 40.9832 58.0313 40.9832H61.5309C62.4061 40.9832 63.0623 40.3332 63.0623 39.4668V39.25C62.1872 34.4832 58.2497 30.8 53.2186 30.3668V25.1668C53.2186 24.3 52.5623 23.65 51.4688 23.4332H48.1875C47.3123 23.4332 46.6561 24.0832 46.4372 25.1668V30.15C39.8747 31.0168 35.7187 35.35 35.7187 40.7668C35.7187 47.9168 40.0936 50.7332 49.2811 51.8169C55.4063 52.9 57.375 54.2 57.375 57.6669C57.375 61.1337 54.3121 63.5169 50.1562 63.5169C44.4684 63.5169 42.4997 61.1332 41.8434 57.8832C41.625 57.0168 40.9687 56.5832 40.3125 56.5832H36.5934C35.7188 56.5832 35.0625 57.2332 35.0625 58.1V58.3169C35.9371 63.7332 39.4373 67.6332 46.6561 68.7169V73.9169C46.6561 74.7832 47.3123 75.4332 48.4059 75.65H51.6871C52.5623 75.65 53.2186 75 53.4375 73.9169V68.7169C60 67.6332 64.3748 63.0832 64.3748 57.2332Z" fill="white"/>
<path d="M60.6561 79.9832C77.7186 73.9169 86.4688 55.0669 80.1247 38.3832C76.8435 29.2832 69.6247 22.35 60.6561 19.1C59.781 18.6669 59.3436 18.0169 59.3436 16.9332V13.9C59.3436 13.0332 59.781 12.3832 60.6561 12.1669C60.8751 12.1669 61.3124 12.1669 61.5313 12.3832C82.3124 18.8832 93.6876 40.7669 87.1251 61.35C83.1876 73.4832 73.7811 82.8 61.5313 86.7C60.6561 87.1332 59.781 86.7 59.5626 85.8332C59.3436 85.6169 59.3436 85.4 59.3436 84.9669V81.9332C59.3436 81.2832 59.9999 80.4169 60.6561 79.9832ZM37.4685 12.3832C38.3436 11.95 39.2188 12.3832 39.4372 13.25C39.6561 13.4669 39.6561 13.6832 39.6561 14.1169V17.15C39.6561 18.0169 38.9999 18.8832 38.3436 19.3169C21.2811 25.3832 12.531 44.2332 18.8751 60.9169C22.1563 70.0169 29.3751 76.95 38.3436 80.2C39.2188 80.6332 39.6561 81.2832 39.6561 82.3669V85.4C39.6561 86.2669 39.2188 86.9169 38.3436 87.1332C38.1247 87.1332 37.6874 87.1332 37.4685 86.9169C16.6874 80.4169 5.31221 58.5332 11.8747 37.95C15.8122 25.6 25.4376 16.2832 37.4685 12.3832Z" fill="white"/>
<path d="M90.6705 78.6009C106.214 78.6009 118.815 66.0927 118.815 50.663C118.815 35.2333 106.214 22.7251 90.6705 22.7251C75.1269 22.7251 62.5264 35.2333 62.5264 50.663C62.5264 66.0927 75.1269 78.6009 90.6705 78.6009Z" fill="#0D6EFD"/>
<path d="M90.6704 79.7758C82.8357 79.7758 75.4704 76.747 69.9307 71.2487C64.391 65.7504 61.3408 58.4393 61.3408 50.6642C61.3408 42.889 64.391 35.578 69.9307 30.0797C75.4704 24.5802 82.8357 21.5526 90.6704 21.5526C98.5052 21.5526 105.87 24.5814 111.41 30.0797C116.95 35.578 120 42.889 120 50.6642C120 58.4393 116.95 65.7504 111.41 71.2487C105.87 76.7482 98.5052 79.7758 90.6704 79.7758ZM90.6704 23.9C75.8059 23.9 63.7118 35.9057 63.7118 50.663C63.7118 65.4203 75.8047 77.4261 90.6704 77.4261C105.536 77.4261 117.629 65.4203 117.629 50.663C117.629 35.9057 105.535 23.9 90.6704 23.9Z" fill="white"/>
<path d="M78.2723 50.663L78.2921 57.9417L84.4768 61.581V65.8424L74.6726 60.0922V48.5345L78.2723 50.663ZM78.2723 43.3842V47.6257L74.6704 45.4951V41.2535L78.2723 39.1229L81.8918 41.2535L78.2723 43.3842ZM87.0597 41.2535L90.6616 39.1229L94.2811 41.2535L90.6616 43.3842L87.0597 41.2535Z" fill="white"/>
<path d="M80.875 56.433V52.1716L84.4769 54.3023V58.5438L80.875 56.433ZM87.0597 63.1074L90.6616 65.2381L94.2811 63.1074V67.3489L90.6616 69.4796L87.0597 67.3489V63.1074ZM99.4468 41.2535L103.049 39.1229L106.668 41.2535V45.4951L103.049 47.6257V43.3842L99.4468 41.2535ZM103.049 57.9417L103.069 50.663L106.67 48.5323V60.09L96.8661 65.8402V61.5788L103.049 57.9417Z" fill="white"/>
<path d="M100.466 56.433L96.864 58.5438V54.3023L100.466 52.1716V56.433Z" fill="white"/>
<path d="M100.466 44.8929L100.486 49.1542L94.2833 52.7936V60.09L90.6814 62.2008L87.0796 60.09V52.7936L80.8772 49.1542V44.8929L84.4945 42.7622L90.6594 46.4192L96.8617 42.7622L100.481 44.8929H100.466ZM80.875 37.6164L90.6616 31.8463L100.466 37.6164L96.8639 39.747L90.6616 36.09L84.4769 39.747L80.875 37.6164Z" fill="white"/>
</symbol>

<symbol id="wallets-xrp" width="48" height="48" viewBox="0 0 48 48 ">
<path style=" stroke:none;fill-rule:nonzero;fill:rgb(5.098039%,43.137255%,99.215686%);fill-opacity:1;" d="M 24 48 C 10.761719 48 0 37.238281 0 24 C 0 10.761719 10.761719 0 24 0 C 37.238281 0 48 10.761719 48 24 C 48 37.238281 37.273438 48 24 48 Z M 24 48 "/>
<path style=" stroke:none;fill-rule:nonzero;fill:rgb(100%,100%,100%);fill-opacity:1;" d="M 36.375 14.625 C 36.375 17.773438 34.011719 20.8125 30.601562 21.226562 C 30 21.300781 29.363281 21.300781 28.761719 21.414062 C 26.773438 21.824219 25.949219 24.1875 27.261719 25.726562 C 27.789062 26.363281 28.539062 26.585938 29.363281 26.664062 C 30.1875 26.738281 31.085938 26.8125 31.875 27.074219 C 34.425781 27.9375 35.886719 29.773438 36.300781 32.398438 C 36.863281 36 34.460938 39.1875 31.125 39.976562 C 27.488281 40.800781 23.699219 38.324219 23.023438 34.648438 C 22.726562 33.039062 23.0625 31.574219 23.773438 30.148438 C 24.074219 29.550781 24.335938 28.949219 24.300781 28.273438 C 24.261719 27.1875 23.550781 26.25 22.425781 25.875 C 21.488281 25.539062 20.363281 25.875 19.726562 26.699219 C 19.3125 27.226562 18.9375 27.824219 18.523438 28.351562 C 16.761719 30.449219 14.511719 31.164062 11.886719 30.5625 C 9.261719 29.960938 7.539062 28.273438 6.863281 25.648438 C 5.925781 21.898438 8.289062 18.148438 12.039062 17.4375 C 14.8125 16.914062 17.101562 17.8125 18.789062 20.101562 C 19.164062 20.585938 19.460938 21.113281 19.875 21.5625 C 21.261719 22.949219 23.738281 22.273438 24.226562 20.363281 C 24.414062 19.613281 24.261719 18.898438 23.925781 18.261719 C 23.289062 17.0625 22.835938 15.789062 22.875 14.363281 C 22.988281 11.136719 25.539062 8.398438 28.6875 7.988281 C 32.25 7.539062 35.550781 9.863281 36.226562 13.460938 C 36.335938 13.800781 36.335938 14.210938 36.375 14.625 Z M 36.375 14.625 "/>
</symbol>

<symbol id="wallets-matic" width="48" height="48" viewBox="0 0 99 98">
<path d="M98.8868 49.0006C98.8868 76.0632 76.7506 98 49.4434 98C22.1362 98 0 76.0632 0 49.0006C0 21.9379 22.1362 0 49.4434 0C76.7506 0 98.8868 21.9379 98.8868 49.0006Z" fill="#0D6EFD"/>
<path d="M66.8437 39.3552C65.6406 38.6746 64.0937 38.6746 62.7187 39.3552L53.0937 44.9701L46.5625 48.5433L37.1094 54.1582C35.9062 54.8388 34.3594 54.8388 32.9844 54.1582L25.5937 49.7343C24.3906 49.0537 23.5312 47.6925 23.5312 46.1612V37.6537C23.5312 36.2925 24.2187 34.9313 25.5937 34.0806L32.9844 29.8269C34.1875 29.1463 35.7344 29.1463 37.1094 29.8269L44.5 34.2507C45.7031 34.9313 46.5625 36.2925 46.5625 37.8239V43.4388L53.0937 39.6955V33.9104C53.0937 32.5493 52.4062 31.1881 51.0312 30.3373L37.2812 22.3403C36.0781 21.6597 34.5312 21.6597 33.1562 22.3403L19.0625 30.5075C17.6875 31.1881 17 32.5493 17 33.9104V49.9045C17 51.2657 17.6875 52.6269 19.0625 53.4776L32.9844 61.4746C34.1875 62.1552 35.7344 62.1552 37.1094 61.4746L46.5625 56.0299L53.0937 52.2866L62.5469 46.8418C63.75 46.1612 65.2969 46.1612 66.6719 46.8418L74.0625 51.0955C75.2656 51.7761 76.125 53.1373 76.125 54.6687V63.1761C76.125 64.5373 75.4375 65.8985 74.0625 66.7493L66.8437 71.003C65.6406 71.6836 64.0937 71.6836 62.7187 71.003L55.3281 66.7493C54.125 66.0687 53.2656 64.7075 53.2656 63.1761V57.7313L46.7344 61.4746V67.0896C46.7344 68.4507 47.4219 69.8119 48.7969 70.6627L62.7187 78.6597C63.9219 79.3403 65.4687 79.3403 66.8437 78.6597L80.7656 70.6627C81.9687 69.9821 82.8281 68.6209 82.8281 67.0896V50.9254C82.8281 49.5642 82.1406 48.203 80.7656 47.3522L66.8437 39.3552Z" fill="white"/>
</symbol>

<symbol id="wallets-polygon-usdc" width="48" height="48" viewBox="0 0 126 104">
<path d="M103.831 52.0006C103.831 80.7202 80.5882 104 51.9156 104C23.243 104 0 80.7202 0 52.0006C0 23.2811 23.243 0 51.9156 0C80.5882 0 103.831 23.2811 103.831 52.0006Z" fill="#0D6EFD"/>
<path d="M65.8923 59.633C65.8923 52.1227 61.386 49.5477 52.3735 48.475C45.936 47.6165 44.6485 45.9 44.6485 42.8955C44.6485 39.891 46.7945 37.9602 51.086 37.9602C54.9485 37.9602 57.0945 39.2477 58.1673 42.4665C58.382 43.1102 59.0258 43.5392 59.6695 43.5392H63.1025C63.961 43.5392 64.6048 42.8955 64.6048 42.0375V41.8227C63.7463 37.1017 59.8838 33.454 54.9485 33.025V27.875C54.9485 27.0165 54.3048 26.3727 53.232 26.158H50.0133C49.1548 26.158 48.511 26.8017 48.2963 27.875V32.8102C41.8588 33.6688 37.782 37.9602 37.782 43.325C37.782 50.4062 42.0735 53.1955 51.086 54.2688C57.0945 55.3415 59.0258 56.629 59.0258 60.0625C59.0258 63.496 56.0213 65.8563 51.9445 65.8563C46.365 65.8563 44.4338 63.4955 43.79 60.2767C43.5758 59.4187 42.932 58.9892 42.2883 58.9892H38.64C37.782 58.9892 37.1383 59.633 37.1383 60.4915V60.7063C37.9963 66.0705 41.4298 69.933 48.511 71.0063V76.1563C48.511 77.0142 49.1548 77.658 50.2275 77.8727H53.4463C54.3048 77.8727 54.9485 77.229 55.1633 76.1563V71.0063C61.6008 69.933 65.8923 65.4267 65.8923 59.633Z" fill="white"/>
<path d="M40.786 82.1642C24.0485 76.1562 15.465 57.4875 21.6883 40.9642C24.907 31.9517 31.9883 25.0852 40.786 21.8665C41.6445 21.4375 42.0735 20.7937 42.0735 19.7205V16.7165C42.0735 15.858 41.6445 15.2142 40.786 15C40.5713 15 40.1423 15 39.9275 15.2142C19.5423 21.6517 8.38376 43.325 14.8213 63.7102C18.6838 75.7267 27.911 84.954 39.9275 88.8165C40.786 89.2455 41.6445 88.8165 41.8588 87.958C42.0735 87.7438 42.0735 87.529 42.0735 87.1V84.0955C42.0735 83.4517 41.4298 82.5938 40.786 82.1642ZM63.532 15.2142C62.6735 14.7852 61.815 15.2142 61.6008 16.0727C61.386 16.2875 61.386 16.5017 61.386 16.9313V19.9352C61.386 20.7937 62.0298 21.6517 62.6735 22.0813C79.411 28.0892 87.9945 46.758 81.7713 63.2813C78.5525 72.2938 71.4713 79.1602 62.6735 82.379C61.815 82.808 61.386 83.4517 61.386 84.525V87.529C61.386 88.3875 61.815 89.0313 62.6735 89.2455C62.8883 89.2455 63.3173 89.2455 63.532 89.0313C83.9173 82.5938 95.0758 60.9205 88.6383 40.5352C84.7758 28.304 75.3338 19.0767 63.532 15.2142Z" fill="white"/>
<path d="M95.7961 83.5411C112.117 83.5411 125.347 70.267 125.347 53.8927C125.347 37.5183 112.117 24.2443 95.7961 24.2443C79.4753 24.2443 66.2448 37.5183 66.2448 53.8927C66.2448 70.267 79.4753 83.5411 95.7961 83.5411Z" fill="#0D6EFD"/>
<path d="M95.7961 84.7878C87.5696 84.7878 79.8361 81.5736 74.0194 75.7387C68.2027 69.9038 65 62.1451 65 53.8939C65 45.6428 68.2027 37.8841 74.0194 32.0491C79.8361 26.213 87.5696 23 95.7961 23C104.023 23 111.756 26.2142 117.573 32.0491C123.389 37.8841 126.592 45.6428 126.592 53.8939C126.592 62.1451 123.389 69.9038 117.573 75.7387C111.756 81.5749 104.023 84.7878 95.7961 84.7878ZM95.7961 25.4911C80.1883 25.4911 67.4895 38.2319 67.4895 53.8927C67.4895 69.5535 80.1871 82.2943 95.7961 82.2943C111.405 82.2943 124.103 69.5535 124.103 53.8927C124.103 38.2319 111.404 25.4911 95.7961 25.4911Z" fill="white"/>
<path d="M105.773 47.0861C105.078 46.6944 104.185 46.6944 103.392 47.0861L97.8355 50.3175L94.0653 52.3739L88.6084 55.6053C87.9138 55.997 87.0209 55.997 86.2272 55.6053L81.9608 53.0593C81.2663 52.6677 80.7702 51.8843 80.7702 51.003V46.1068C80.7702 45.3234 81.1671 44.5401 81.9608 44.0504L86.2272 41.6024C86.9217 41.2107 87.8146 41.2107 88.6084 41.6024L92.8747 44.1484C93.5692 44.5401 94.0653 45.3234 94.0653 46.2047V49.4362L97.8355 47.2819V43.9525C97.8355 43.1691 97.4386 42.3858 96.6449 41.8961L88.7076 37.2938C88.0131 36.9021 87.1201 36.9021 86.3264 37.2938L78.1906 41.9941C77.3969 42.3858 77 43.1691 77 43.9525V53.1573C77 53.9407 77.3969 54.724 78.1906 55.2136L86.2272 59.816C86.9217 60.2077 87.8146 60.2077 88.6084 59.816L94.0653 56.6825L97.8355 54.5282L103.292 51.3947C103.987 51.003 104.88 51.003 105.674 51.3947L109.94 53.8427C110.634 54.2344 111.131 55.0178 111.131 55.8991V60.7953C111.131 61.5786 110.734 62.362 109.94 62.8516L105.773 65.2997C105.078 65.6914 104.185 65.6914 103.392 65.2997L99.1253 62.8516C98.4308 62.4599 97.9347 61.6766 97.9347 60.7953V57.6617L94.1645 59.816V63.0475C94.1645 63.8309 94.5614 64.6142 95.3551 65.1039L103.392 69.7062C104.086 70.0979 104.979 70.0979 105.773 69.7062L113.809 65.1039C114.504 64.7122 115 63.9288 115 63.0475V53.7448C115 52.9614 114.603 52.178 113.809 51.6884L105.773 47.0861Z" fill="white"/>
</symbol>

<symbol id="wallets-polygon-usdt" width="48" height="48" viewBox="0 0 126 104">
<path d="M103.831 52.0006C103.831 80.7202 80.5882 104 51.9156 104C23.243 104 0 80.7202 0 52.0006C0 23.2811 23.243 0 51.9156 0C80.5882 0 103.831 23.2811 103.831 52.0006Z" fill="#0D6EFD"/>
<path d="M76.2801 26.2222H27.1216V38.109H45.7666V55.5814H57.6339V38.109H76.2789V26.2222H76.2801Z" fill="white"/>
<path d="M51.8135 57.4416C36.39 57.4416 23.8841 54.9966 23.8841 51.9794C23.8841 48.9622 36.3887 46.5173 51.8135 46.5173C67.2383 46.5173 79.7417 48.9622 79.7417 51.9794C79.7417 54.9966 67.2371 57.4416 51.8135 57.4416ZM83.1722 52.8908C83.1722 49.0009 69.1328 45.849 51.8135 45.849C34.4942 45.849 20.4536 49.0021 20.4536 52.8908C20.4536 56.3157 31.3413 59.1696 45.7678 59.8017V84.8831H57.6352V59.8117C72.1725 59.1995 83.1735 56.3332 83.1735 52.8908H83.1722Z" fill="white"/>
<path d="M95.7961 83.5411C112.117 83.5411 125.347 70.267 125.347 53.8927C125.347 37.5183 112.117 24.2443 95.7961 24.2443C79.4753 24.2443 66.2448 37.5183 66.2448 53.8927C66.2448 70.267 79.4753 83.5411 95.7961 83.5411Z" fill="#0D6EFD"/>
<path d="M95.7961 84.7878C87.5696 84.7878 79.8361 81.5736 74.0194 75.7387C68.2027 69.9038 65 62.1451 65 53.8939C65 45.6428 68.2027 37.8841 74.0194 32.0491C79.8361 26.213 87.5696 23 95.7961 23C104.023 23 111.756 26.2142 117.573 32.0491C123.389 37.8841 126.592 45.6428 126.592 53.8939C126.592 62.1451 123.389 69.9038 117.573 75.7387C111.756 81.5749 104.023 84.7878 95.7961 84.7878ZM95.7961 25.4911C80.1883 25.4911 67.4895 38.2319 67.4895 53.8927C67.4895 69.5535 80.1871 82.2943 95.7961 82.2943C111.405 82.2943 124.103 69.5535 124.103 53.8927C124.103 38.2319 111.404 25.4911 95.7961 25.4911Z" fill="white"/>
<path d="M105.773 47.0861C105.078 46.6944 104.185 46.6944 103.392 47.0861L97.8355 50.3175L94.0653 52.3739L88.6084 55.6053C87.9138 55.997 87.0209 55.997 86.2272 55.6053L81.9608 53.0593C81.2663 52.6677 80.7702 51.8843 80.7702 51.003V46.1068C80.7702 45.3234 81.1671 44.5401 81.9608 44.0504L86.2272 41.6024C86.9217 41.2107 87.8146 41.2107 88.6084 41.6024L92.8747 44.1484C93.5692 44.5401 94.0653 45.3234 94.0653 46.2047V49.4362L97.8355 47.2819V43.9525C97.8355 43.1691 97.4386 42.3858 96.6449 41.8961L88.7076 37.2938C88.0131 36.9021 87.1201 36.9021 86.3264 37.2938L78.1906 41.9941C77.3969 42.3858 77 43.1691 77 43.9525V53.1573C77 53.9407 77.3969 54.724 78.1906 55.2136L86.2272 59.816C86.9217 60.2077 87.8146 60.2077 88.6084 59.816L94.0653 56.6825L97.8355 54.5282L103.292 51.3947C103.987 51.003 104.88 51.003 105.674 51.3947L109.94 53.8427C110.634 54.2344 111.131 55.0178 111.131 55.8991V60.7953C111.131 61.5786 110.734 62.362 109.94 62.8516L105.773 65.2997C105.078 65.6914 104.185 65.6914 103.392 65.2997L99.1253 62.8516C98.4308 62.4599 97.9347 61.6766 97.9347 60.7953V57.6617L94.1645 59.816V63.0475C94.1645 63.8309 94.5614 64.6142 95.3551 65.1039L103.392 69.7062C104.086 70.0979 104.979 70.0979 105.773 69.7062L113.809 65.1039C114.504 64.7122 115 63.9288 115 63.0475V53.7448C115 52.9614 114.603 52.178 113.809 51.6884L105.773 47.0861Z" fill="white"/>
</symbol>

<symbol id="wallets-avax" width="48" height="48" viewBox="0 0 99 98">
<path d="M98.8868 49.0006C98.8868 76.0632 76.7506 98 49.4434 98C22.1362 98 0 76.0632 0 49.0006C0 21.9379 22.1362 0 49.4434 0C76.7506 0 98.8868 21.9379 98.8868 49.0006Z" fill="#0D6EFD"/>
<path d="M78.613 17.6396H19.3333V72.0732H78.613V17.6396Z" fill="white"/>
<path fill-rule="evenodd" clip-rule="evenodd" d="M96.9783 49.5C96.9783 76.2505 75.5002 97.9355 49.0051 97.9355C22.5103 97.9355 1.03195 76.2505 1.03195 49.5C1.03195 22.7498 22.5103 1.06451 49.0051 1.06451C75.5002 1.06451 96.9783 22.7498 96.9783 49.5ZM35.4109 68.7749H26.1006C24.1443 68.7749 23.1779 68.7749 22.5887 68.3944C21.9523 67.9777 21.5634 67.2876 21.5162 66.526C21.4808 65.8243 21.9641 64.9673 22.9305 63.2538L45.9186 22.3436C46.8968 20.6063 47.3917 19.7377 48.0163 19.4165C48.6881 19.0714 49.4895 19.0714 50.1613 19.4165C50.7859 19.7377 51.2809 20.6063 52.259 22.3436L56.9849 30.6727L57.009 30.7152C58.0655 32.5789 58.6012 33.524 58.8351 34.5159C59.0944 35.5987 59.0944 36.741 58.8351 37.8238C58.5994 38.8232 58.0691 39.7752 56.9966 41.6671L44.9215 63.2182L44.8903 63.2734C43.8268 65.1524 43.2879 66.1048 42.5409 66.8233C41.7278 67.6088 40.7496 68.1796 39.6771 68.5014C38.6989 68.7749 37.603 68.7749 35.4109 68.7749ZM58.9223 68.7749H72.2628C74.2309 68.7749 75.2211 68.7749 75.8107 68.3828C76.4469 67.9661 76.8474 67.2638 76.8832 66.5027C76.9171 65.8236 76.4444 65 75.5181 63.3862C75.4862 63.3312 75.4542 63.2753 75.4216 63.2184L68.7393 51.6767L68.6632 51.5468C67.7242 49.9435 67.2502 49.1339 66.6415 48.821C65.9701 48.4759 65.1799 48.4759 64.5085 48.821C63.8956 49.1423 63.4007 49.9871 62.4225 51.6886L55.7639 63.2304L55.7411 63.2701C54.7664 64.9689 54.2792 65.8178 54.3144 66.5144C54.3615 67.276 54.7504 67.9777 55.3867 68.3944C55.9643 68.7749 56.9542 68.7749 58.9223 68.7749Z" fill="#0D6EFD"/>
</symbol>

<symbol id="wallets-avalanche-usdt" width="48" height="48" viewBox="0 0 126 104">
<path d="M103.831 52.0006C103.831 80.7202 80.5882 104 51.9156 104C23.243 104 0 80.7202 0 52.0006C0 23.2811 23.243 0 51.9156 0C80.5882 0 103.831 23.2811 103.831 52.0006Z" fill="#0D6EFD"/>
<path d="M76.2801 26.2222H27.1216V38.109H45.7666V55.5814H57.6339V38.109H76.2789V26.2222H76.2801Z" fill="white"/>
<path d="M51.8135 57.4416C36.39 57.4416 23.8841 54.9966 23.8841 51.9794C23.8841 48.9622 36.3887 46.5173 51.8135 46.5173C67.2383 46.5173 79.7417 48.9622 79.7417 51.9794C79.7417 54.9966 67.2371 57.4416 51.8135 57.4416ZM83.1722 52.8908C83.1722 49.0009 69.1328 45.849 51.8135 45.849C34.4942 45.849 20.4536 49.0021 20.4536 52.8908C20.4536 56.3157 31.3413 59.1696 45.7678 59.8017V84.8832H57.6352V59.8117C72.1725 59.1995 83.1735 56.3332 83.1735 52.8908H83.1722Z" fill="white"/>
<path d="M95.7961 83.5411C112.117 83.5411 125.347 70.267 125.347 53.8927C125.347 37.5183 112.117 24.2443 95.7961 24.2443C79.4753 24.2443 66.2448 37.5183 66.2448 53.8927C66.2448 70.267 79.4753 83.5411 95.7961 83.5411Z" fill="#0D6EFD"/>
<path d="M95.7961 84.7878C87.5696 84.7878 79.8361 81.5736 74.0194 75.7387C68.2027 69.9038 65 62.1451 65 53.8939C65 45.6427 68.2027 37.884 74.0194 32.0491C79.8361 26.2129 87.5696 23 95.7961 23C104.023 23 111.756 26.2142 117.573 32.0491C123.389 37.884 126.592 45.6427 126.592 53.8939C126.592 62.1451 123.389 69.9038 117.573 75.7387C111.756 81.5749 104.023 84.7878 95.7961 84.7878ZM95.7961 25.4911C80.1883 25.4911 67.4895 38.2319 67.4895 53.8927C67.4895 69.5534 80.1871 82.2943 95.7961 82.2943C111.405 82.2943 124.103 69.5534 124.103 53.8927C124.103 38.2319 111.404 25.4911 95.7961 25.4911Z" fill="white"/>
<path d="M105.773 47.0861C105.078 46.6944 104.185 46.6944 103.392 47.0861L97.8355 50.3175L94.0653 52.3739L88.6084 55.6053C87.9138 55.997 87.0209 55.997 86.2272 55.6053L81.9608 53.0593C81.2663 52.6677 80.7702 51.8843 80.7702 51.003V46.1068C80.7702 45.3234 81.1671 44.5401 81.9608 44.0504L86.2272 41.6024C86.9217 41.2107 87.8146 41.2107 88.6084 41.6024L92.8747 44.1484C93.5692 44.5401 94.0653 45.3234 94.0653 46.2047V49.4362L97.8355 47.2819V43.9525C97.8355 43.1691 97.4386 42.3858 96.6449 41.8961L88.7076 37.2938C88.0131 36.9021 87.1201 36.9021 86.3264 37.2938L78.1906 41.9941C77.3969 42.3858 77 43.1691 77 43.9525V53.1573C77 53.9407 77.3969 54.724 78.1906 55.2136L86.2272 59.816C86.9217 60.2077 87.8146 60.2077 88.6084 59.816L94.0653 56.6825L97.8355 54.5282L103.292 51.3947C103.987 51.003 104.88 51.003 105.674 51.3947L109.94 53.8427C110.634 54.2344 111.131 55.0178 111.131 55.8991V60.7953C111.131 61.5786 110.734 62.362 109.94 62.8516L105.773 65.2997C105.078 65.6914 104.185 65.6914 103.392 65.2997L99.1253 62.8516C98.4308 62.4599 97.9347 61.6766 97.9347 60.7953V57.6617L94.1645 59.816V63.0475C94.1645 63.8309 94.5614 64.6142 95.3551 65.1039L103.392 69.7062C104.086 70.0979 104.979 70.0979 105.773 69.7062L113.809 65.1039C114.504 64.7122 115 63.9288 115 63.0475V53.7448C115 52.9614 114.603 52.178 113.809 51.6884L105.773 47.0861Z" fill="white"/>
<path d="M111.844 36.2633H79.1204V66.5665H111.844V36.2633Z" fill="white"/>
<path fill-rule="evenodd" clip-rule="evenodd" d="M121.982 54C121.982 68.892 110.126 80.9641 95.5 80.9641C80.8742 80.9641 69.0176 68.892 69.0176 54C69.0176 39.1082 80.8742 27.0359 95.5 27.0359C110.126 27.0359 121.982 39.1082 121.982 54ZM87.9957 64.7304H82.8562C81.7762 64.7304 81.2428 64.7304 80.9175 64.5185C80.5662 64.2866 80.3515 63.9024 80.3255 63.4784C80.3059 63.0877 80.5727 62.6106 81.1062 61.6568L93.7962 38.882C94.3362 37.9149 94.6094 37.4313 94.9542 37.2525C95.325 37.0604 95.7674 37.0604 96.1382 37.2525C96.483 37.4313 96.7563 37.9149 97.2962 38.882L99.905 43.5188L99.9183 43.5425C100.502 44.58 100.797 45.1061 100.926 45.6583C101.07 46.2611 101.07 46.897 100.926 47.4998C100.796 48.0562 100.504 48.5862 99.9115 49.6394L93.2458 61.6369L93.2285 61.6677C92.6415 62.7137 92.344 63.2439 91.9316 63.6439C91.4827 64.0812 90.9427 64.399 90.3507 64.5781C89.8107 64.7304 89.2057 64.7304 87.9957 64.7304ZM100.975 64.7304H108.339C109.425 64.7304 109.972 64.7304 110.297 64.5121C110.649 64.2801 110.87 63.8891 110.889 63.4655C110.908 63.0874 110.647 62.6289 110.136 61.7305C110.118 61.6999 110.101 61.6687 110.083 61.6371L106.394 55.2118L106.352 55.1394C105.833 54.2469 105.572 53.7962 105.236 53.622C104.865 53.4299 104.429 53.4299 104.058 53.622C103.72 53.8009 103.447 54.2712 102.907 55.2184L99.231 61.6437L99.2184 61.6658C98.6804 62.6115 98.4114 63.0841 98.4308 63.4719C98.4569 63.8959 98.6715 64.2866 99.0228 64.5185C99.3416 64.7304 99.8881 64.7304 100.975 64.7304Z" fill="#0D6EFD"/>
</symbol>

<symbol id="wallets-avalanche-usdc" width="48" height="48" viewBox="0 0 126 104">
<path d="M103.831 52.0006C103.831 80.7202 80.5882 104 51.9156 104C23.243 104 0 80.7202 0 52.0006C0 23.2811 23.243 0 51.9156 0C80.5882 0 103.831 23.2811 103.831 52.0006Z" fill="#0D6EFD"/>
<path d="M65.8923 59.633C65.8923 52.1227 61.386 49.5477 52.3735 48.475C45.936 47.6165 44.6485 45.9 44.6485 42.8955C44.6485 39.891 46.7945 37.9602 51.086 37.9602C54.9485 37.9602 57.0945 39.2477 58.1673 42.4665C58.382 43.1102 59.0258 43.5392 59.6695 43.5392H63.1025C63.961 43.5392 64.6048 42.8955 64.6048 42.0375V41.8227C63.7463 37.1017 59.8838 33.454 54.9485 33.025V27.875C54.9485 27.0165 54.3048 26.3727 53.232 26.158H50.0133C49.1548 26.158 48.511 26.8017 48.2963 27.875V32.8102C41.8588 33.6688 37.782 37.9602 37.782 43.325C37.782 50.4062 42.0735 53.1955 51.086 54.2688C57.0945 55.3415 59.0258 56.629 59.0258 60.0625C59.0258 63.496 56.0213 65.8563 51.9445 65.8563C46.365 65.8563 44.4338 63.4955 43.79 60.2767C43.5758 59.4187 42.932 58.9892 42.2883 58.9892H38.64C37.782 58.9892 37.1383 59.633 37.1383 60.4915V60.7063C37.9963 66.0705 41.4298 69.933 48.511 71.0063V76.1563C48.511 77.0142 49.1548 77.658 50.2275 77.8727H53.4463C54.3048 77.8727 54.9485 77.229 55.1633 76.1563V71.0063C61.6008 69.933 65.8923 65.4267 65.8923 59.633Z" fill="white"/>
<path d="M40.786 82.1642C24.0485 76.1562 15.465 57.4875 21.6883 40.9642C24.907 31.9517 31.9883 25.0852 40.786 21.8665C41.6445 21.4375 42.0735 20.7937 42.0735 19.7205V16.7165C42.0735 15.858 41.6445 15.2142 40.786 15C40.5713 15 40.1423 15 39.9275 15.2142C19.5423 21.6517 8.38376 43.325 14.8213 63.7102C18.6838 75.7267 27.911 84.954 39.9275 88.8165C40.786 89.2455 41.6445 88.8165 41.8588 87.958C42.0735 87.7438 42.0735 87.529 42.0735 87.1V84.0955C42.0735 83.4517 41.4298 82.5938 40.786 82.1642ZM63.532 15.2142C62.6735 14.7852 61.815 15.2142 61.6008 16.0727C61.386 16.2875 61.386 16.5017 61.386 16.9313V19.9352C61.386 20.7937 62.0298 21.6517 62.6735 22.0813C79.411 28.0892 87.9945 46.758 81.7713 63.2813C78.5525 72.2938 71.4713 79.1602 62.6735 82.379C61.815 82.808 61.386 83.4517 61.386 84.525V87.529C61.386 88.3875 61.815 89.0313 62.6735 89.2455C62.8883 89.2455 63.3173 89.2455 63.532 89.0313C83.9173 82.5938 95.0758 60.9205 88.6383 40.5352C84.7758 28.304 75.3338 19.0767 63.532 15.2142Z" fill="white"/>
<path d="M95.7961 83.5411C112.117 83.5411 125.347 70.267 125.347 53.8927C125.347 37.5183 112.117 24.2443 95.7961 24.2443C79.4753 24.2443 66.2448 37.5183 66.2448 53.8927C66.2448 70.267 79.4753 83.5411 95.7961 83.5411Z" fill="#0D6EFD"/>
<path d="M95.7961 84.7878C87.5696 84.7878 79.8361 81.5736 74.0194 75.7387C68.2027 69.9038 65 62.1451 65 53.8939C65 45.6427 68.2027 37.884 74.0194 32.0491C79.8361 26.2129 87.5696 23 95.7961 23C104.023 23 111.756 26.2142 117.573 32.0491C123.389 37.884 126.592 45.6427 126.592 53.8939C126.592 62.1451 123.389 69.9038 117.573 75.7387C111.756 81.5749 104.023 84.7878 95.7961 84.7878ZM95.7961 25.4911C80.1883 25.4911 67.4895 38.2319 67.4895 53.8927C67.4895 69.5534 80.1871 82.2943 95.7961 82.2943C111.405 82.2943 124.103 69.5534 124.103 53.8927C124.103 38.2319 111.404 25.4911 95.7961 25.4911Z" fill="white"/>
<path d="M105.773 47.0861C105.078 46.6944 104.185 46.6944 103.392 47.0861L97.8355 50.3175L94.0653 52.3739L88.6084 55.6053C87.9138 55.997 87.0209 55.997 86.2272 55.6053L81.9608 53.0593C81.2663 52.6677 80.7702 51.8843 80.7702 51.003V46.1068C80.7702 45.3234 81.1671 44.5401 81.9608 44.0504L86.2272 41.6024C86.9217 41.2107 87.8146 41.2107 88.6084 41.6024L92.8747 44.1484C93.5692 44.5401 94.0653 45.3234 94.0653 46.2047V49.4362L97.8355 47.2819V43.9525C97.8355 43.1691 97.4386 42.3858 96.6449 41.8961L88.7076 37.2938C88.0131 36.9021 87.1201 36.9021 86.3264 37.2938L78.1906 41.9941C77.3969 42.3858 77 43.1691 77 43.9525V53.1573C77 53.9407 77.3969 54.724 78.1906 55.2136L86.2272 59.816C86.9217 60.2077 87.8146 60.2077 88.6084 59.816L94.0653 56.6825L97.8355 54.5282L103.292 51.3947C103.987 51.003 104.88 51.003 105.674 51.3947L109.94 53.8427C110.634 54.2344 111.131 55.0178 111.131 55.8991V60.7953C111.131 61.5786 110.734 62.362 109.94 62.8516L105.773 65.2997C105.078 65.6914 104.185 65.6914 103.392 65.2997L99.1253 62.8516C98.4308 62.4599 97.9347 61.6766 97.9347 60.7953V57.6617L94.1645 59.816V63.0475C94.1645 63.8309 94.5614 64.6142 95.3551 65.1039L103.392 69.7062C104.086 70.0979 104.979 70.0979 105.773 69.7062L113.809 65.1039C114.504 64.7122 115 63.9288 115 63.0475V53.7448C115 52.9614 114.603 52.178 113.809 51.6884L105.773 47.0861Z" fill="white"/>
<path d="M111.844 36.2633H79.1204V66.5665H111.844V36.2633Z" fill="white"/>
<path fill-rule="evenodd" clip-rule="evenodd" d="M121.982 54C121.982 68.892 110.126 80.9641 95.5 80.9641C80.8742 80.9641 69.0176 68.892 69.0176 54C69.0176 39.1082 80.8742 27.0359 95.5 27.0359C110.126 27.0359 121.982 39.1082 121.982 54ZM87.9957 64.7304H82.8562C81.7762 64.7304 81.2428 64.7304 80.9175 64.5185C80.5662 64.2866 80.3515 63.9024 80.3255 63.4784C80.3059 63.0877 80.5727 62.6106 81.1062 61.6568L93.7962 38.882C94.3362 37.9149 94.6094 37.4313 94.9542 37.2525C95.325 37.0604 95.7674 37.0604 96.1382 37.2525C96.483 37.4313 96.7563 37.9149 97.2962 38.882L99.905 43.5188L99.9183 43.5425C100.502 44.58 100.797 45.1061 100.926 45.6583C101.07 46.2611 101.07 46.897 100.926 47.4998C100.796 48.0562 100.504 48.5862 99.9115 49.6394L93.2458 61.6369L93.2285 61.6677C92.6415 62.7137 92.344 63.2439 91.9316 63.6439C91.4827 64.0812 90.9427 64.399 90.3507 64.5781C89.8107 64.7304 89.2057 64.7304 87.9957 64.7304ZM100.975 64.7304H108.339C109.425 64.7304 109.972 64.7304 110.297 64.5121C110.649 64.2801 110.87 63.8891 110.889 63.4655C110.908 63.0874 110.647 62.6289 110.136 61.7305C110.118 61.6999 110.101 61.6687 110.083 61.6371L106.394 55.2118L106.352 55.1394C105.833 54.2469 105.572 53.7962 105.236 53.622C104.865 53.4299 104.429 53.4299 104.058 53.622C103.72 53.8009 103.447 54.2712 102.907 55.2184L99.231 61.6437L99.2184 61.6658C98.6804 62.6115 98.4114 63.0841 98.4308 63.4719C98.4569 63.8959 98.6715 64.2866 99.0228 64.5185C99.3416 64.7304 99.8881 64.7304 100.975 64.7304Z" fill="#0D6EFD"/>
</symbol>

<symbol id="menu-arrow" viewBox="0 0 32 32">
<path d="M20.7071 5.29289C21.0976 5.68342 21.0976 6.31658 20.7071 6.70711L11.4142 16L20.7071 25.2929C21.0976 25.6834 21.0976 26.3166 20.7071 26.7071C20.3166 27.0976 19.6834 27.0976 19.2929 26.7071L9.29289 16.7071C8.90237 16.3166 8.90237 15.6834 9.29289 15.2929L19.2929 5.29289C19.6834 4.90237 20.3166 4.90237 20.7071 5.29289Z"/>
</symbol>
<symbol id="menu-wallets" viewBox="0 0 32 32">
<path d="M7 7C6.73478 7 6.48043 7.10536 6.29289 7.29289C6.10536 7.48043 6 7.73478 6 8C6 8.26522 6.10536 8.51957 6.29289 8.70711C6.48043 8.89464 6.73478 9 7 9H27C27.5304 9 28.0391 9.21071 28.4142 9.58579C28.7893 9.96086 29 10.4696 29 11V25C29 25.5304 28.7893 26.0391 28.4142 26.4142C28.0391 26.7893 27.5304 27 27 27H7C6.20435 27 5.44129 26.6839 4.87868 26.1213C4.31607 25.5587 4 24.7957 4 24V8C4 7.20435 4.31607 6.44129 4.87868 5.87868C5.44129 5.31607 6.20435 5 7 5H24C24.5523 5 25 5.44772 25 6C25 6.55228 24.5523 7 24 7H7ZM6 10.8284V24C6 24.2652 6.10536 24.5196 6.29289 24.7071C6.48043 24.8946 6.73478 25 7 25H27V11H7C6.65606 11 6.3182 10.9409 6 10.8284Z" />
<path d="M22.5 19.5C23.3284 19.5 24 18.8284 24 18C24 17.1716 23.3284 16.5 22.5 16.5C21.6716 16.5 21 17.1716 21 18C21 18.8284 21.6716 19.5 22.5 19.5Z" />
</symbol>
<symbol id="menu-source-rates" viewBox="0 0 32 32">
<path d="M4 5C4.55228 5 5 5.44772 5 6V25H28C28.5523 25 29 25.4477 29 26C29 26.5523 28.5523 27 28 27H4C3.44772 27 3 26.5523 3 26V6C3 5.44772 3.44772 5 4 5Z" />
<path d="M28.7526 11.3415C29.1163 11.7571 29.0742 12.3889 28.6585 12.7526L20.6585 19.7526C20.3029 20.0637 19.778 20.0835 19.4 19.8L12.0485 14.2864L4.65852 20.7526C4.24288 21.1163 3.61112 21.0742 3.24744 20.6585C2.88375 20.2429 2.92587 19.6111 3.34151 19.2474L11.3415 12.2474C11.6971 11.9363 12.222 11.9165 12.6 12.2L19.9515 17.7137L27.3415 11.2474C27.7571 10.8838 28.3889 10.9259 28.7526 11.3415Z" />
</symbol>
<symbol id="menu-transactions" viewBox="0 0 32 32">
<path d="M21.2929 17.2929C21.6834 16.9024 22.3166 16.9024 22.7071 17.2929L26.7071 21.2929C27.0976 21.6834 27.0976 22.3166 26.7071 22.7071L22.7071 26.7071C22.3166 27.0976 21.6834 27.0976 21.2929 26.7071C20.9024 26.3166 20.9024 25.6834 21.2929 25.2929L24.5858 22L21.2929 18.7071C20.9024 18.3166 20.9024 17.6834 21.2929 17.2929Z"/>
<path d="M5 22C5 21.4477 5.44772 21 6 21H26C26.5523 21 27 21.4477 27 22C27 22.5523 26.5523 23 26 23H6C5.44772 23 5 22.5523 5 22Z"/>
<path d="M10.7071 5.29289C11.0976 5.68342 11.0976 6.31658 10.7071 6.70711L7.41421 10L10.7071 13.2929C11.0976 13.6834 11.0976 14.3166 10.7071 14.7071C10.3166 15.0976 9.68342 15.0976 9.29289 14.7071L5.29289 10.7071C4.90237 10.3166 4.90237 9.68342 5.29289 9.29289L9.29289 5.29289C9.68342 4.90237 10.3166 4.90237 10.7071 5.29289Z"/>
<path d="M5 10C5 9.44772 5.44772 9 6 9H26C26.5523 9 27 9.44772 27 10C27 10.5523 26.5523 11 26 11H6C5.44772 11 5 10.5523 5 10Z"/>
</symbol>
<symbol id="menu-logout" viewBox="0 0 32 32">
<path d="M21.0429 10.0429C21.4334 9.65237 22.0666 9.65237 22.4571 10.0429L27.7071 15.2929C28.0976 15.6834 28.0976 16.3166 27.7071 16.7071L22.4571 21.9571C22.0666 22.3476 21.4334 22.3476 21.0429 21.9571C20.6524 21.5666 20.6524 20.9334 21.0429 20.5429L25.5858 16L21.0429 11.4571C20.6524 11.0666 20.6524 10.4334 21.0429 10.0429Z" />
<path d="M12 16C12 15.4477 12.4477 15 13 15H27C27.5523 15 28 15.4477 28 16C28 16.5523 27.5523 17 27 17H13C12.4477 17 12 16.5523 12 16Z" />
<path d="M4.58579 4.58579C4.96086 4.21071 5.46957 4 6 4H13C13.5523 4 14 4.44772 14 5C14 5.55228 13.5523 6 13 6L6 6L6 26H13C13.5523 26 14 26.4477 14 27C14 27.5523 13.5523 28 13 28H6C5.46957 28 4.96086 27.7893 4.58579 27.4142C4.21071 27.0391 4 26.5304 4 26V6C4 5.46957 4.21071 4.96086 4.58579 4.58579Z" />
</symbol>
<symbol id="circledollar-icon" width="16" height="16" viewBox="0 0 16 16">
<path d="M8 4C8.27614 4 8.5 4.22386 8.5 4.5V5.5C8.5 5.77614 8.27614 6 8 6C7.72386 6 7.5 5.77614 7.5 5.5V4.5C7.5 4.22386 7.72386 4 8 4Z"/>
<path d="M8 10C8.27614 10 8.5 10.2239 8.5 10.5V11.5C8.5 11.7761 8.27614 12 8 12C7.72386 12 7.5 11.7761 7.5 11.5V10.5C7.5 10.2239 7.72386 10 8 10Z"/>
<path d="M8 2.5C4.96243 2.5 2.5 4.96243 2.5 8C2.5 11.0376 4.96243 13.5 8 13.5C11.0376 13.5 13.5 11.0376 13.5 8C13.5 4.96243 11.0376 2.5 8 2.5ZM1.5 8C1.5 4.41015 4.41015 1.5 8 1.5C11.5899 1.5 14.5 4.41015 14.5 8C14.5 11.5899 11.5899 14.5 8 14.5C4.41015 14.5 1.5 11.5899 1.5 8Z"/>
<path d="M7.25 6C7.05109 6 6.86032 6.07902 6.71967 6.21967C6.57902 6.36032 6.5 6.55109 6.5 6.75C6.5 6.94891 6.57902 7.13968 6.71967 7.28033C6.86032 7.42098 7.05109 7.5 7.25 7.5H8.75C9.21413 7.5 9.65925 7.68437 9.98744 8.01256C10.3156 8.34075 10.5 8.78587 10.5 9.25C10.5 9.71413 10.3156 10.1592 9.98744 10.4874C9.65925 10.8156 9.21413 11 8.75 11H6.5C6.22386 11 6 10.7761 6 10.5C6 10.2239 6.22386 10 6.5 10H8.75C8.94891 10 9.13968 9.92098 9.28033 9.78033C9.42098 9.63968 9.5 9.44891 9.5 9.25C9.5 9.05109 9.42098 8.86032 9.28033 8.71967C9.13968 8.57902 8.94891 8.5 8.75 8.5H7.25C6.78587 8.5 6.34075 8.31563 6.01256 7.98744C5.68437 7.65925 5.5 7.21413 5.5 6.75C5.5 6.28587 5.68437 5.84075 6.01256 5.51256C6.34075 5.18437 6.78587 5 7.25 5H9.5C9.77614 5 10 5.22386 10 5.5C10 5.77614 9.77614 6 9.5 6H7.25Z"/>
</symbol>

<symbol id="gearsix-icon" width="16" height="16" viewBox="0 0 16 16">
<path d="M8 5.5C6.61929 5.5 5.5 6.61929 5.5 8C5.5 9.38071 6.61929 10.5 8 10.5C9.38071 10.5 10.5 9.38071 10.5 8C10.5 6.61929 9.38071 5.5 8 5.5ZM4.5 8C4.5 6.067 6.067 4.5 8 4.5C9.933 4.5 11.5 6.067 11.5 8C11.5 9.933 9.933 11.5 8 11.5C6.067 11.5 4.5 9.933 4.5 8Z"/>
<path d="M5.85889 1.33042C5.99621 1.28609 6.146 1.30326 6.26974 1.3775L7.73129 2.25443C7.91044 2.24643 8.08986 2.24643 8.26901 2.25445L9.72449 1.38345C9.84721 1.31001 9.9955 1.29264 10.1319 1.33572C11.087 1.63749 11.9652 2.14323 12.7055 2.81794C12.8117 2.91466 12.8711 3.05234 12.8687 3.19591L12.8401 4.89481C12.9388 5.04637 13.0293 5.20308 13.1114 5.36426L14.593 6.188C14.7177 6.25736 14.8069 6.37673 14.838 6.51604C15.056 7.49234 15.0583 8.50445 14.8447 9.48173C14.814 9.62223 14.7243 9.74271 14.5985 9.81239L13.1112 10.6361C13.0292 10.7972 12.9387 10.9537 12.8401 11.1052L12.8687 12.8041C12.8711 12.9477 12.8117 13.0853 12.7055 13.1821C11.9667 13.8553 11.0923 14.3625 10.1411 14.6696C10.0038 14.7139 9.85398 14.6967 9.73024 14.6225L8.26869 13.7456C8.08954 13.7536 7.91012 13.7536 7.73097 13.7455L6.27549 14.6165C6.15277 14.69 6.00448 14.7074 5.86811 14.6643C4.91296 14.3625 4.03481 13.8568 3.29445 13.1821C3.18831 13.0853 3.12888 12.9476 3.13131 12.8041L3.15994 11.109C3.06183 10.9559 2.97136 10.798 2.88887 10.6359L1.40702 9.81199C1.28227 9.74263 1.19311 9.62326 1.162 9.48395C0.944024 8.50765 0.941724 7.49554 1.15526 6.51826C1.18596 6.37776 1.27568 6.25728 1.40149 6.1876L2.88881 5.36385C2.9708 5.20281 3.0613 5.04624 3.15991 4.89481L3.13131 3.19591C3.12889 3.05233 3.18832 2.91464 3.29446 2.81792C4.03327 2.14469 4.90768 1.63748 5.85889 1.33042ZM4.13506 3.41041L4.16242 5.03533C4.16419 5.1406 4.13269 5.24374 4.0724 5.33006C3.93828 5.52206 3.82087 5.72521 3.72145 5.93726C3.67675 6.03259 3.60309 6.11138 3.51099 6.16239L2.08882 6.95005C1.96443 7.64456 1.96616 8.35583 2.09393 9.04973L3.5117 9.838C3.60311 9.88882 3.67628 9.96703 3.72092 10.0616C3.82253 10.2769 3.94104 10.4839 4.07534 10.6804C4.13374 10.7659 4.16417 10.8674 4.16242 10.9709L4.13508 12.5895C4.67551 13.0461 5.29353 13.4019 5.95969 13.6401L7.34949 12.8085C7.43751 12.7558 7.5396 12.7315 7.64191 12.7388C7.88032 12.7558 8.11965 12.7558 8.35806 12.7388C8.46058 12.7314 8.56286 12.7559 8.65099 12.8088L10.0453 13.6453C10.7092 13.4033 11.3253 13.0459 11.8649 12.5896L11.8376 10.9647C11.8358 10.8594 11.8673 10.7562 11.9276 10.6699C12.0617 10.4779 12.1791 10.2748 12.2785 10.0627C12.3232 9.9674 12.3969 9.88861 12.489 9.8376L13.9112 9.04994C14.0355 8.35543 14.0338 7.64416 13.906 6.95026L12.4883 6.16199C12.3965 6.11097 12.3231 6.03234 12.2785 5.93726C12.1791 5.72521 12.0617 5.52206 11.9276 5.33006C11.8673 5.24374 11.8358 5.1406 11.8376 5.03533L11.8649 3.41048C11.3245 2.95393 10.7064 2.59807 10.0403 2.35985L8.65049 3.19154C8.56247 3.24421 8.46038 3.26854 8.35806 3.26122C8.11965 3.24417 7.88032 3.24417 7.64191 3.26122C7.5394 3.26855 7.43712 3.24412 7.34899 3.19124L5.95471 2.35468C5.29073 2.59667 4.6747 2.95409 4.13506 3.41041Z"/>
</symbol>

<symbol id="arrow-left-icon" width="8" height="8" viewBox="0 0 8 8">
<path d="M5.17678 1.32322C5.27441 1.42085 5.27441 1.57915 5.17678 1.67678L2.85355 4L5.17678 6.32322C5.27441 6.42085 5.27441 6.57915 5.17678 6.67678C5.07915 6.77441 4.92085 6.77441 4.82322 6.67678L2.32322 4.17678C2.22559 4.07915 2.22559 3.92085 2.32322 3.82322L4.82322 1.32322C4.92085 1.22559 5.07915 1.22559 5.17678 1.32322Z"/>
</symbol>

<symbol id="close-icon" width="10" height="10" viewBox="0 0 12 12" fill="none">
<path d="M1 1L11 11M11 1L1 11" stroke="#CE5E5E" stroke-width="2"/>
</symbol>

<symbol id="dropdown-menu-arrow" width="16" height="16" viewBox="0 0 16 16">
<path d="M2.64645 5.64645C2.84171 5.45118 3.15829 5.45118 3.35355 5.64645L8 10.2929L12.6464 5.64645C12.8417 5.45118 13.1583 5.45118 13.3536 5.64645C13.5488 5.84171 13.5488 6.15829 13.3536 6.35355L8.35355 11.3536C8.15829 11.5488 7.84171 11.5488 7.64645 11.3536L2.64645 6.35355C2.45118 6.15829 2.45118 5.84171 2.64645 5.64645Z" fill="#495057"/>
</symbol>
</defs>
</svg>
