<svg width="114" height="67" viewBox="0 0 114 67" fill="none" xmlns="http://www.w3.org/2000/svg">
<g clip-path="url(#clip0_129_363)">
<path d="M16.6621 49.2011C15.9647 48.7649 15.2434 48.3752 14.5015 48.0355C13.8725 47.7423 13.1717 47.4705 12.3923 47.2131C11.6129 46.9592 10.8505 46.8305 10.1087 46.8305C9.50361 46.8305 9.02159 46.927 8.66264 47.1237C8.30369 47.3168 8.12251 47.6457 8.12251 48.107C8.12251 48.4467 8.22849 48.7256 8.43702 48.9473C8.64555 49.1654 8.9498 49.3656 9.34293 49.548C9.73949 49.7303 10.2215 49.9055 10.789 50.0772C11.3599 50.2488 12.0026 50.4526 12.7239 50.6957C13.8623 51.0605 14.8913 51.4609 15.8109 51.9007C16.7305 52.337 17.5133 52.8554 18.1628 53.449C18.8124 54.0461 19.3149 54.7684 19.6636 55.6194C20.0123 56.4704 20.1866 57.5037 20.1866 58.7194C20.1866 60.2748 19.9131 61.5835 19.3662 62.6383C18.8192 63.6967 18.0979 64.5406 17.2056 65.1734C16.31 65.8063 15.2981 66.2604 14.1734 66.5429C13.0452 66.8218 11.9137 66.9613 10.7753 66.9613C9.86939 66.9613 8.93955 66.8897 7.98577 66.7431C7.03199 66.5965 6.08504 66.3927 5.14494 66.1245C4.20483 65.8564 3.29549 65.5417 2.42376 65.177C1.55203 64.8123 0.745247 64.3975 0 63.9363L2.92971 57.7004C3.74333 58.2367 4.59113 58.7087 5.47654 59.1235C6.22179 59.4882 7.06275 59.8172 8.00628 60.1068C8.94638 60.4 9.907 60.543 10.8847 60.543C11.63 60.543 12.1462 60.4393 12.4367 60.2319C12.7273 60.0245 12.8709 59.7528 12.8709 59.4131C12.8709 59.0484 12.7239 58.7373 12.4367 58.4834C12.1462 58.2296 11.7462 58.0043 11.2334 57.8077C10.7206 57.6146 10.136 57.4179 9.47284 57.2248C8.80964 57.0317 8.10542 56.7993 7.36359 56.5312C6.26965 56.1414 5.32954 55.7231 4.53985 55.2725C3.75016 54.822 3.09722 54.3143 2.58785 53.7422C2.07507 53.1701 1.69902 52.5193 1.45631 51.7899C1.21359 51.0605 1.09052 50.2202 1.09052 49.2727C1.09052 47.8388 1.34008 46.5731 1.83919 45.4789C2.3383 44.3848 3.01859 43.473 3.88007 42.7436C4.74155 42.0141 5.72267 41.4599 6.82687 41.0845C7.93107 40.709 9.10022 40.5195 10.3309 40.5195C11.2368 40.5195 12.1222 40.6089 12.9803 40.7949C13.8418 40.9772 14.6725 41.2096 15.4724 41.4885C16.2758 41.7674 17.0245 42.0714 17.7218 42.4003C18.4192 42.7293 19.0482 43.0403 19.6055 43.33L16.6621 49.2011Z" fill="#0D6EFD"/>
<path d="M45.0829 40.7383V66.6329H38.2834V56.4925H29.9831V66.6329H23.1836V40.7383H29.9831V50.2923H38.2834V40.7383H45.0829Z" fill="#0D6EFD"/>
<path d="M49.3359 66.6329V40.7383H56.1355V50.5855L63.6666 40.7383H71.3378L62.3402 52.3376L71.9634 66.6329H64.152L58.0157 57.1146L56.132 59.1563V66.6329H49.3359Z" fill="#0D6EFD"/>
<path d="M108.942 25.808C106.863 19.5614 102.58 14.5341 96.8839 11.6557C91.1889 8.77731 84.7659 8.38757 78.7899 10.5651C72.8139 12.7427 68.0109 17.2194 65.2589 23.1763C63.5469 26.8807 62.7639 30.8782 62.9069 34.8722H63.9329C63.7859 31.0356 64.538 27.1953 66.182 23.6412C68.815 17.9416 73.413 13.658 79.128 11.577C81.569 10.6867 84.0849 10.2469 86.5949 10.2469C89.9619 10.2469 93.3149 11.0443 96.4369 12.6211C101.886 15.3743 105.981 20.1835 107.971 26.162C112.08 38.5014 105.824 52.0352 94.0269 56.3295C89.2469 58.0708 84.1639 58.0958 79.4429 56.4475L79.1179 57.4665C81.5349 58.3104 84.041 58.7359 86.557 58.7359C89.179 58.7359 91.8109 58.2746 94.3619 57.345C106.696 52.8504 113.235 38.7053 108.942 25.808Z" fill="#0D6EFD" stroke="#0D6EFD" stroke-width="2" stroke-miterlimit="10"/>
<path d="M110.978 25.0656C108.709 18.2469 104.039 12.7655 97.824 9.62251C91.612 6.47954 84.601 6.05761 78.082 8.43182C67.146 12.4151 60.391 23.3565 60.756 34.87H61.098C60.732 23.5031 67.399 12.7011 78.194 8.76793C84.625 6.4259 91.544 6.84425 97.677 9.94432C103.806 13.0444 108.418 18.4579 110.657 25.1836C115.279 39.0713 108.24 54.2999 94.962 59.1377C89.418 61.1579 83.65 61.0471 78.475 59.2271L78.379 59.5668C81.004 60.4893 83.777 60.9792 86.597 60.9792C89.411 60.9792 92.269 60.4964 95.072 59.4738C108.527 54.5752 115.662 39.1393 110.978 25.0656Z" fill="#0D6EFD"/>
<path d="M78.0089 8.75303C77.7969 8.75303 77.5989 8.61358 77.5239 8.39189L75.3019 1.71263C75.2099 1.43373 75.3499 1.12622 75.6159 1.02968C75.8829 0.93314 76.1769 1.07974 76.2689 1.35864L78.4909 8.0379C78.5839 8.3168 78.4429 8.6243 78.1769 8.72085C78.1219 8.74588 78.0639 8.75303 78.0089 8.75303Z" fill="#0D6EFD"/>
<path d="M84.7169 28.5366C84.6449 28.5366 84.5799 28.4901 84.5559 28.4151L79.7089 13.848C79.6779 13.755 79.7259 13.6513 79.8149 13.6191C79.9029 13.587 79.9989 13.637 80.0329 13.73L84.8809 28.2971C84.9119 28.39 84.8639 28.4937 84.7749 28.5259C84.7539 28.5331 84.7339 28.5366 84.7169 28.5366Z" fill="#0D6EFD"/>
<path d="M107.118 17.6317C106.968 17.6317 106.818 17.5602 106.715 17.4279C106.541 17.1955 106.578 16.8594 106.8 16.6734L111.997 12.3719C112.219 12.186 112.54 12.2289 112.718 12.4613C112.892 12.6938 112.855 13.0299 112.633 13.2158L107.436 17.5173C107.344 17.5924 107.231 17.6317 107.118 17.6317Z" fill="#0D6EFD"/>
<path d="M91.088 30.5469C91.036 30.5469 90.988 30.5219 90.954 30.479C90.896 30.4003 90.91 30.2895 90.982 30.2287L102.55 20.6531C102.625 20.5924 102.731 20.6067 102.789 20.6818C102.847 20.7604 102.834 20.8713 102.762 20.9321L91.194 30.5076C91.163 30.5326 91.125 30.5469 91.088 30.5469Z" fill="#0D6EFD"/>
<path d="M113.485 54.1427C113.379 54.1427 113.277 54.1105 113.185 54.039L107.684 49.8626C107.455 49.6874 107.404 49.3549 107.571 49.1118C107.739 48.8722 108.057 48.8186 108.289 48.9938L113.79 53.1701C114.019 53.3453 114.07 53.6778 113.902 53.921C113.8 54.0676 113.643 54.1427 113.485 54.1427Z" fill="#0D6EFD"/>
<path d="M103.436 46.1581C103.402 46.1581 103.364 46.1474 103.337 46.1224L91.3821 37.0439C91.3071 36.9866 91.2901 36.8758 91.3451 36.7936C91.3991 36.7149 91.5091 36.697 91.5841 36.7542L103.539 45.8327C103.614 45.8899 103.631 46.0008 103.576 46.083C103.542 46.1331 103.487 46.1581 103.436 46.1581Z" fill="#0D6EFD"/>
<path d="M76.8559 67.2708C76.8049 67.2708 76.7569 67.2636 76.7059 67.2458C76.4359 67.1599 76.2819 66.8596 76.3669 66.5771L78.3399 59.8514C78.4219 59.5689 78.7089 59.408 78.9789 59.4974C79.2489 59.5832 79.4029 59.8836 79.3179 60.166L77.3449 66.8918C77.2769 67.1242 77.0749 67.2708 76.8559 67.2708Z" fill="#0D6EFD"/>
<path d="M80.4919 54.506C80.4749 54.506 80.4579 54.5024 80.4399 54.4989C80.3519 54.4703 80.2999 54.3702 80.3279 54.2772L84.6519 39.5313C84.6799 39.4384 84.7749 39.3811 84.8639 39.4133C84.9529 39.4419 85.0039 39.5421 84.9769 39.635L80.6519 54.3809C80.6319 54.456 80.5669 54.506 80.4919 54.506Z" fill="#0D6EFD"/>
<path d="M53.7549 34.8086C53.4749 34.8086 53.2419 34.5691 53.2419 34.2758C53.2419 33.9791 53.4679 33.7395 53.7519 33.7359L60.5439 33.6895H60.5479C60.8279 33.6895 61.0599 33.929 61.0599 34.2222C61.0599 34.519 60.8349 34.7586 60.5509 34.7621L53.7549 34.8086Z" fill="#0D6EFD"/>
<path d="M66.1629 34.3682C66.0709 34.3682 65.9919 34.2895 65.9919 34.1894C65.9919 34.0893 66.0669 34.0106 66.1629 34.0106L81.0199 33.9141C81.1119 33.9141 81.1909 33.9927 81.1909 34.0928C81.1909 34.193 81.1159 34.2716 81.0199 34.2716L66.1629 34.3682C66.1669 34.3682 66.1669 34.3682 66.1629 34.3682Z" fill="#0D6EFD"/>
<path d="M86.9711 37.5787C86.4961 37.5787 86.0251 37.475 85.5771 37.264C84.7531 36.8743 84.1201 36.1735 83.7991 35.2867C83.4781 34.4 83.5081 33.4381 83.8811 32.5728C84.2541 31.7111 84.9241 31.0496 85.7721 30.7135C86.6191 30.3774 87.5391 30.4096 88.3661 30.7993C89.1901 31.1891 89.8231 31.8899 90.1441 32.7766C90.4651 33.6634 90.4341 34.6252 90.0621 35.4905C89.6891 36.3523 89.0191 37.0138 88.1711 37.3499C87.7821 37.5036 87.3781 37.5787 86.9711 37.5787ZM86.9751 31.5573C86.6911 31.5573 86.4111 31.611 86.1371 31.7183C84.9171 32.201 84.3021 33.6312 84.7631 34.9077C84.9851 35.5263 85.4261 36.0162 86.0011 36.2879C86.5751 36.5596 87.2181 36.5811 87.8091 36.3487C88.4001 36.1163 88.8691 35.655 89.1291 35.0543C89.3881 34.4536 89.4091 33.7814 89.1871 33.1628C88.9651 32.5442 88.5241 32.0544 87.9491 31.7826C87.6351 31.6324 87.3071 31.5573 86.9751 31.5573Z" fill="#0D6EFD"/>
</g>
<defs>
<clipPath id="clip0_129_363">
<rect width="114" height="67" fill="white"/>
</clipPath>
</defs>
</svg>
