<svg width="207" height="74" viewBox="0 0 207 74" fill="none" xmlns="http://www.w3.org/2000/svg">
<g clip-path="url(#clip0_126_323)">
<path d="M16.6621 39.2011C15.9647 38.7649 15.2434 38.3752 14.5015 38.0355C13.8725 37.7423 13.1717 37.4705 12.3923 37.2131C11.6129 36.9592 10.8505 36.8305 10.1087 36.8305C9.50361 36.8305 9.02159 36.927 8.66264 37.1237C8.30369 37.3168 8.12251 37.6457 8.12251 38.107C8.12251 38.4467 8.22849 38.7256 8.43702 38.9473C8.64555 39.1654 8.9498 39.3656 9.34293 39.548C9.73949 39.7303 10.2215 39.9055 10.789 40.0772C11.3599 40.2488 12.0026 40.4526 12.7239 40.6957C13.8623 41.0605 14.8913 41.4609 15.8109 41.9007C16.7305 42.337 17.5133 42.8554 18.1628 43.449C18.8124 44.0461 19.3149 44.7684 19.6636 45.6194C20.0123 46.4704 20.1866 47.5037 20.1866 48.7194C20.1866 50.2748 19.9131 51.5835 19.3662 52.6383C18.8192 53.6967 18.0979 54.5406 17.2056 55.1734C16.31 55.8063 15.2981 56.2604 14.1734 56.5429C13.0452 56.8218 11.9137 56.9613 10.7753 56.9613C9.86939 56.9613 8.93955 56.8897 7.98577 56.7431C7.03199 56.5965 6.08504 56.3927 5.14494 56.1245C4.20483 55.8564 3.29549 55.5417 2.42376 55.177C1.55203 54.8123 0.745247 54.3975 0 53.9363L2.92971 47.7004C3.74333 48.2367 4.59113 48.7087 5.47654 49.1235C6.22179 49.4882 7.06275 49.8172 8.00628 50.1068C8.94638 50.4 9.907 50.543 10.8847 50.543C11.63 50.543 12.1462 50.4393 12.4367 50.2319C12.7273 50.0245 12.8709 49.7528 12.8709 49.4131C12.8709 49.0484 12.7239 48.7373 12.4367 48.4834C12.1462 48.2296 11.7462 48.0043 11.2334 47.8077C10.7206 47.6146 10.136 47.4179 9.47284 47.2248C8.80964 47.0317 8.10542 46.7993 7.36359 46.5312C6.26965 46.1414 5.32954 45.7231 4.53985 45.2725C3.75016 44.822 3.09722 44.3143 2.58785 43.7422C2.07507 43.1701 1.69902 42.5193 1.45631 41.7899C1.21359 41.0605 1.09052 40.2202 1.09052 39.2727C1.09052 37.8388 1.34008 36.5731 1.83919 35.4789C2.3383 34.3848 3.01859 33.473 3.88007 32.7436C4.74155 32.0141 5.72267 31.4599 6.82687 31.0845C7.93107 30.709 9.10022 30.5195 10.3309 30.5195C11.2368 30.5195 12.1222 30.6089 12.9803 30.7949C13.8418 30.9772 14.6725 31.2096 15.4724 31.4885C16.2758 31.7674 17.0245 32.0714 17.7218 32.4003C18.4192 32.7293 19.0482 33.0403 19.6055 33.33L16.6621 39.2011Z" fill="#0D6EFD"/>
<path d="M45.0829 30.7383V56.6329H38.2834V46.4925H29.9831V56.6329H23.1836V30.7383H29.9831V40.2923H38.2834V30.7383H45.0829Z" fill="#0D6EFD"/>
<path d="M49.3359 56.6329V30.7383H56.1355V40.5855L63.6666 30.7383H71.3378L62.3402 42.3376L71.9634 56.6329H64.152L58.0157 47.1146L56.132 49.1563V56.6329H49.3359Z" fill="#0D6EFD"/>
<path d="M81.9734 56.9966C80.3701 56.9966 78.9412 56.7356 77.6831 56.2136C76.4285 55.6915 75.3756 54.98 74.5278 54.0789C73.68 53.1779 73.0339 52.1445 72.5929 50.9789C72.1519 49.8132 71.9297 48.5832 71.9297 47.296C71.9297 45.9086 72.1451 44.5964 72.5758 43.3556C73.0065 42.1149 73.6458 41.0351 74.4936 40.109C75.3414 39.1865 76.3875 38.4499 77.6319 37.9028C78.8762 37.3557 80.3223 37.084 81.9734 37.084C83.6007 37.084 85.0433 37.3557 86.2979 37.9028C87.5525 38.4499 88.6054 39.1793 89.4533 40.0911C90.3011 41.0029 90.9403 42.0613 91.3711 43.2627C91.8018 44.4677 92.0172 45.7227 92.0172 47.0385C92.0172 47.4032 92.0001 47.7751 91.9659 48.1505C91.9317 48.526 91.8907 48.8621 91.8428 49.1517H78.9754C79.0437 50.1743 79.4061 50.9073 80.0556 51.3579C80.7051 51.8084 81.4162 52.0337 82.182 52.0337C82.9033 52.0337 83.5836 51.862 84.2228 51.5223C84.8621 51.1827 85.286 50.7071 85.4945 50.0993L91.1078 51.7762C90.3626 53.3066 89.2174 54.5616 87.6722 55.5342C86.127 56.5103 84.2263 56.9966 81.9734 56.9966ZM84.8997 44.9968C84.7835 44.0743 84.4587 43.3449 83.922 42.8086C83.3887 42.2722 82.7016 42.0076 81.864 42.0076C81.0265 42.0076 80.3428 42.2758 79.8061 42.8086C79.2693 43.3449 78.9446 44.0743 78.8283 44.9968H84.8997Z" fill="#0D6EFD"/>
<path d="M103.208 56.9966C101.604 56.9966 100.176 56.7356 98.9175 56.2136C97.6629 55.6915 96.61 54.98 95.7622 54.0789C94.9144 53.1779 94.2682 52.1445 93.8273 50.9789C93.3863 49.8132 93.1641 48.5832 93.1641 47.296C93.1641 45.9086 93.3794 44.5964 93.8102 43.3556C94.2409 42.1149 94.8802 41.0351 95.728 40.109C96.5758 39.1865 97.6219 38.4499 98.8662 37.9028C100.111 37.3557 101.557 37.084 103.208 37.084C104.835 37.084 106.278 37.3557 107.532 37.9028C108.787 38.4499 109.84 39.1793 110.688 40.0911C111.535 41.0029 112.175 42.0613 112.605 43.2627C113.036 44.4677 113.252 45.7227 113.252 47.0385C113.252 47.4032 113.234 47.7751 113.2 48.1505C113.166 48.526 113.125 48.8621 113.077 49.1517H100.21C100.278 50.1743 100.64 50.9073 101.29 51.3579C101.94 51.8084 102.651 52.0337 103.416 52.0337C104.138 52.0337 104.818 51.862 105.457 51.5223C106.096 51.1827 106.52 50.7071 106.729 50.0993L112.342 51.7762C111.597 53.3066 110.452 54.5616 108.907 55.5342C107.365 56.5103 105.464 56.9966 103.208 56.9966ZM106.138 44.9968C106.021 44.0743 105.697 43.3449 105.16 42.8086C104.623 42.2722 103.939 42.0076 103.102 42.0076C102.264 42.0076 101.581 42.2758 101.044 42.8086C100.507 43.3449 100.182 44.0743 100.066 44.9968H106.138Z" fill="#0D6EFD"/>
<path d="M127.755 56.9966C126.428 56.9966 125.28 56.7249 124.302 56.1778C123.324 55.6307 122.569 54.8334 122.035 53.7893V70.5697H115.41V37.4487H121.164V40.3307C121.813 39.2866 122.616 38.4821 123.57 37.9243C124.524 37.3665 125.697 37.084 127.091 37.084C128.298 37.084 129.426 37.3343 130.472 37.8313C131.518 38.3283 132.414 39.0184 133.156 39.8908C133.898 40.7669 134.486 41.811 134.916 43.0267C135.347 44.2424 135.563 45.5546 135.563 46.967C135.563 48.4008 135.364 49.7345 134.971 50.961C134.575 52.1874 134.031 53.2529 133.334 54.154C132.636 55.0551 131.809 55.7523 130.859 56.2493C129.905 56.7463 128.869 56.9966 127.755 56.9966ZM125.454 51.1612C125.943 51.1612 126.391 51.0504 126.797 50.8323C127.204 50.6141 127.553 50.3102 127.843 49.9205C128.134 49.5307 128.367 49.0802 128.541 48.5725C128.715 48.0647 128.804 47.5141 128.804 46.9312C128.804 45.7155 128.472 44.743 127.809 44.0135C127.146 43.2841 126.268 42.9194 125.177 42.9194C123.943 42.9194 122.897 43.5773 122.039 44.8896V48.2077C122.364 49.0587 122.842 49.7631 123.468 50.3245C124.093 50.8823 124.757 51.1612 125.454 51.1612Z" fill="#0D6EFD"/>
<path d="M147.001 56.9966C145.397 56.9966 143.969 56.7356 142.71 56.2136C141.456 55.6915 140.403 54.98 139.555 54.0789C138.707 53.1779 138.061 52.1445 137.62 50.9789C137.179 49.8132 136.957 48.5832 136.957 47.296C136.957 45.9086 137.172 44.5964 137.603 43.3556C138.034 42.1149 138.673 41.0351 139.521 40.109C140.369 39.1865 141.415 38.4499 142.659 37.9028C143.904 37.3557 145.35 37.084 147.001 37.084C148.628 37.084 150.071 37.3557 151.325 37.9028C152.58 38.4499 153.633 39.1793 154.481 40.0911C155.328 41.0029 155.968 42.0613 156.398 43.2627C156.829 44.4677 157.045 45.7227 157.045 47.0385C157.045 47.4032 157.027 47.7751 156.993 48.1505C156.959 48.526 156.918 48.8621 156.87 49.1517H144.003C144.071 50.1743 144.433 50.9073 145.083 51.3579C145.732 51.8084 146.444 52.0337 147.209 52.0337C147.931 52.0337 148.611 51.862 149.25 51.5223C149.889 51.1827 150.313 50.7071 150.522 50.0993L156.135 51.7762C155.39 53.3066 154.245 54.5616 152.7 55.5342C151.158 56.5103 149.257 56.9966 147.001 56.9966ZM149.93 44.9968C149.814 44.0743 149.489 43.3449 148.953 42.8086C148.416 42.2722 147.732 42.0076 146.895 42.0076C146.057 42.0076 145.374 42.2758 144.837 42.8086C144.3 43.3449 143.975 44.0743 143.859 44.9968H149.93Z" fill="#0D6EFD"/>
<path d="M171.658 43.3572C170.379 43.3572 169.217 43.5038 168.171 43.7935C167.125 44.0867 166.345 44.573 165.836 45.2523V56.6299H159.211V37.4467H165.279V41.0939C165.928 39.8067 166.739 38.8126 167.703 38.1225C168.667 37.4289 169.706 37.082 170.824 37.082C171.265 37.082 171.545 37.0963 171.661 37.1178V43.3572H171.658Z" fill="#0D6EFD"/>
<path d="M1.02214 68.4273C0.957184 69.171 1.44262 69.8504 2.28017 69.8504C3.08011 69.8504 3.5006 69.239 3.5006 68.5882C3.5006 67.6979 2.81346 67.444 2.15368 67.2045C1.42895 66.9506 0.335004 66.5537 0.335004 65.1699C0.335004 64.0257 1.08709 63.1211 2.34512 63.1211C3.49034 63.1211 4.27661 63.9864 4.26635 65.102H3.32625C3.33992 64.4512 2.90577 64.0114 2.32119 64.0114C1.66141 64.0114 1.27853 64.4763 1.27853 65.0877C1.27853 65.9244 1.98959 66.1925 2.63912 66.4035C3.46641 66.6824 4.44412 67.0543 4.44412 68.4237C4.44412 69.7539 3.6305 70.7372 2.20496 70.7372C0.755488 70.7372 0.0820312 69.6323 0.0820312 68.4237H1.02214V68.4273Z" fill="#495057"/>
<path d="M6.24773 67.2831C6.36054 68.7312 7.43055 69.8504 8.8937 69.8504C9.98764 69.8504 10.8901 69.1997 11.3243 68.2021H12.3054C11.7448 69.7718 10.4731 70.7443 8.89712 70.7443C6.8494 70.7443 5.27344 69.121 5.27344 66.9399C5.27344 65.1449 6.53147 63.1211 8.89712 63.1211C11.5294 63.1211 12.4832 65.4095 12.4695 67.2831H6.24773ZM11.4508 66.3928C11.1841 64.9161 10.1039 64.0114 8.8937 64.0114C7.55704 64.0114 6.47677 65.009 6.24773 66.3928H11.4508Z" fill="#495057"/>
<path d="M13.8047 60.7246H14.7448V70.5683H13.8047V60.7246Z" fill="#495057"/>
<path d="M16.7912 64.1822H15.7109V63.2919H16.7912V63.1453C16.7912 61.7222 17.7074 60.7246 19.2697 60.7246H19.4611V61.6149H19.2697C18.9893 61.6149 17.7313 61.64 17.7313 63.1453V63.2919H19.4611V64.1822H17.7313V70.5683H16.7912V64.1822Z" fill="#495057"/>
<path d="M23.3008 60.7246H24.2409V64.3431C24.6853 63.6638 25.41 63.1203 26.4903 63.1203C28.0663 63.1203 29.5294 64.1429 29.5294 66.7388V70.5683H28.5893V66.7388C28.5893 66.206 28.5517 64.0106 26.3775 64.0106C25.41 64.0106 24.2409 64.5291 24.2409 66.5779V70.5683H23.3008V60.7246Z" fill="#495057"/>
<path d="M38.0677 66.9359C38.0677 69.1028 36.478 70.7404 34.4303 70.7404C32.3826 70.7404 30.793 69.1028 30.793 66.9359C30.793 64.7691 32.3689 63.1172 34.4303 63.1172C36.4917 63.1172 38.0677 64.7691 38.0677 66.9359ZM31.7331 66.9359C31.7331 68.5843 32.8646 69.8501 34.4303 69.8501C35.996 69.8501 37.1276 68.5879 37.1276 66.9359C37.1276 65.2876 35.996 64.0111 34.4303 64.0111C32.8646 64.0111 31.7331 65.2876 31.7331 66.9359Z" fill="#495057"/>
<path d="M39.8034 68.4273C39.7384 69.171 40.2239 69.8504 41.0614 69.8504C41.8614 69.8504 42.2818 69.239 42.2818 68.5882C42.2818 67.6979 41.5947 67.444 40.9349 67.2045C40.2102 66.9506 39.1163 66.5537 39.1163 65.1699C39.1163 64.0257 39.8649 63.1211 41.1264 63.1211C42.2716 63.1211 43.0579 63.9864 43.0476 65.102H42.1075C42.1212 64.4512 41.687 64.0114 41.1024 64.0114C40.4392 64.0114 40.0598 64.4763 40.0598 65.0877C40.0598 65.9244 40.7708 66.1925 41.4204 66.4035C42.2477 66.6824 43.2254 67.0543 43.2254 68.4237C43.2254 69.7539 42.4118 70.7372 40.9862 70.7372C39.5367 70.7372 38.8633 69.6323 38.8633 68.4237H39.8034V68.4273Z" fill="#495057"/>
<path d="M45.1213 64.1822H43.6719V63.2919H45.1213V60.7246H46.0615V63.2919H47.675V64.1822H46.0615V70.5683H45.1213V64.1822Z" fill="#495057"/>
<path d="M49.3449 67.2831C49.4577 68.7312 50.5277 69.8504 51.9909 69.8504C53.0848 69.8504 53.9873 69.1997 54.4215 68.2021H55.3992C54.8385 69.7718 53.5668 70.7443 51.9909 70.7443C49.9431 70.7443 48.3672 69.121 48.3672 66.9399C48.3672 65.1449 49.6252 63.1211 51.9909 63.1211C54.6232 63.1211 55.5769 65.4095 55.5633 67.2831H49.3449ZM54.5445 66.3928C54.2779 64.9161 53.1976 64.0114 51.9874 64.0114C50.6508 64.0114 49.5705 65.009 49.3415 66.3928H54.5445Z" fill="#495057"/>
<path d="M64.0023 70.5683H63.1134V69.2382H63.0861C62.4639 70.1964 61.4964 70.7399 60.3649 70.7399C58.2932 70.7399 56.6523 69.1166 56.6523 66.8818C56.6523 65.1798 57.8728 63.1167 60.341 63.1167C60.9119 63.1167 62.1973 63.2097 63.0382 64.5541H63.0622V60.7246H64.0023V70.5683ZM57.5924 66.9641C57.5924 68.641 58.8778 69.8496 60.3649 69.8496C61.9033 69.8496 63.1134 68.5981 63.1134 66.9748C63.1134 65.2978 61.9443 64.007 60.341 64.007C58.8266 64.0106 57.5924 65.2728 57.5924 66.9641Z" fill="#495057"/>
<path d="M68.5703 60.7246H69.5104V67.8294L72.7922 63.2919H73.9101L71.2129 66.9355L74.0879 70.5683H72.8811L70.618 67.6935L69.5104 69.1845V70.5683H68.5703V60.7246Z" fill="#495057"/>
<path d="M75.6618 67.2831C75.778 68.7312 76.8446 69.8504 78.3078 69.8504C79.4017 69.8504 80.3042 69.1997 80.7384 68.2021H81.7195C81.1588 69.7718 79.8871 70.7443 78.3112 70.7443C76.2635 70.7443 74.6875 69.121 74.6875 66.9399C74.6875 65.1449 75.9455 63.1211 78.3112 63.1211C80.9435 63.1211 81.8972 65.4095 81.8836 67.2831H75.6618ZM80.8648 66.3928C80.5982 64.9161 79.5179 64.0114 78.3078 64.0114C76.9711 64.0114 75.8908 65.009 75.6618 66.3928H80.8648Z" fill="#495057"/>
<path d="M83.9274 67.2831C84.0436 68.7312 85.1102 69.8504 86.5734 69.8504C87.6673 69.8504 88.5698 69.1997 89.004 68.2021H89.9851C89.4245 69.7718 88.1528 70.7443 86.5768 70.7443C84.5291 70.7443 82.9531 69.121 82.9531 66.9399C82.9531 65.1449 84.2112 63.1211 86.5768 63.1211C89.2091 63.1211 90.1629 65.4095 90.1492 67.2831H83.9274ZM89.1305 66.3928C88.8638 64.9161 87.7836 64.0114 86.5734 64.0114C85.2367 64.0114 84.1565 65.009 83.9274 66.3928H89.1305Z" fill="#495057"/>
<path d="M91.4844 63.2927H92.3732V64.5442H92.3971C93.262 63.282 94.4824 63.1211 95.1183 63.1211C97.5592 63.1211 98.8206 65.1163 98.8206 66.9649C98.8206 69.1317 97.231 70.7407 95.0944 70.7407C93.4022 70.7407 92.6911 69.6359 92.4484 69.2104H92.4245V73.1221H91.4844V63.2927ZM92.3732 66.9792C92.3732 68.5882 93.5047 69.854 95.0944 69.854C96.6327 69.854 97.8805 68.6025 97.8805 66.9542C97.8805 65.3058 96.6738 64.015 95.1217 64.015C93.5047 64.0114 92.3732 65.3416 92.3732 66.9792Z" fill="#495057"/>
<path d="M100.869 67.2831C100.982 68.7312 102.052 69.8504 103.515 69.8504C104.609 69.8504 105.511 69.1997 105.945 68.2021H106.927C106.366 69.7718 105.094 70.7443 103.518 70.7443C101.47 70.7443 99.8945 69.121 99.8945 66.9399C99.8945 65.1449 101.153 63.1211 103.518 63.1211C106.151 63.1211 107.104 65.4095 107.091 67.2831H100.869ZM106.068 66.3928C105.802 64.9161 104.722 64.0114 103.511 64.0114C102.175 64.0114 101.094 65.009 100.865 66.3928H106.068Z" fill="#495057"/>
<path d="M108.421 63.2914H109.31V64.3426H109.334C109.717 63.5596 110.479 63.1055 111.331 63.1341V64.1174C110.442 64.171 109.358 64.7824 109.358 66.2592V70.5678H108.418V63.2914H108.421Z" fill="#495057"/>
<path d="M201.942 24.808C199.863 18.5614 195.58 13.5341 189.884 10.6557C184.189 7.77731 177.766 7.38757 171.79 9.56512C165.814 11.7427 161.011 16.2194 158.259 22.1763C156.547 25.8807 155.764 29.8782 155.907 33.8722H156.933C156.786 30.0356 157.538 26.1953 159.182 22.6412C161.815 16.9416 166.413 12.658 172.128 10.577C174.569 9.68669 177.085 9.24689 179.595 9.24689C182.962 9.24689 186.315 10.0443 189.437 11.6211C194.886 14.3743 198.981 19.1835 200.971 25.162C205.08 37.5014 198.824 51.0352 187.027 55.3295C182.247 57.0708 177.164 57.0958 172.443 55.4475L172.118 56.4665C174.535 57.3104 177.041 57.7359 179.557 57.7359C182.179 57.7359 184.811 57.2746 187.362 56.345C199.696 51.8504 206.235 37.7053 201.942 24.808Z" fill="#0D6EFD" stroke="#0D6EFD" stroke-width="2" stroke-miterlimit="10"/>
<path d="M203.978 24.0656C201.709 17.2469 197.039 11.7655 190.824 8.62251C184.612 5.47954 177.601 5.05761 171.082 7.43182C160.146 11.4151 153.391 22.3565 153.756 33.87H154.098C153.732 22.5031 160.399 11.7011 171.194 7.76793C177.625 5.4259 184.544 5.84425 190.677 8.94432C196.806 12.0444 201.418 17.4579 203.657 24.1836C208.279 38.0713 201.24 53.2999 187.962 58.1377C182.418 60.1579 176.65 60.0471 171.475 58.2271L171.379 58.5668C174.004 59.4893 176.777 59.9792 179.597 59.9792C182.411 59.9792 185.269 59.4964 188.072 58.4738C201.527 53.5752 208.662 38.1393 203.978 24.0656Z" fill="#0D6EFD"/>
<path d="M171.009 7.75303C170.797 7.75303 170.599 7.61358 170.524 7.39189L168.302 0.712627C168.21 0.433728 168.35 0.126224 168.616 0.0296818C168.883 -0.0668599 169.177 0.0797399 169.269 0.358638L171.491 7.0379C171.584 7.3168 171.443 7.6243 171.177 7.72085C171.122 7.74588 171.064 7.75303 171.009 7.75303Z" fill="#0D6EFD"/>
<path d="M177.717 27.5366C177.645 27.5366 177.58 27.4901 177.556 27.4151L172.709 12.848C172.678 12.755 172.726 12.6513 172.815 12.6191C172.903 12.587 172.999 12.637 173.033 12.73L177.881 27.2971C177.912 27.39 177.864 27.4937 177.775 27.5259C177.754 27.5331 177.734 27.5366 177.717 27.5366Z" fill="#0D6EFD"/>
<path d="M200.118 16.6317C199.968 16.6317 199.818 16.5602 199.715 16.4279C199.541 16.1955 199.578 15.8594 199.8 15.6734L204.997 11.3719C205.219 11.186 205.54 11.2289 205.718 11.4613C205.892 11.6938 205.855 12.0299 205.633 12.2158L200.436 16.5173C200.344 16.5924 200.231 16.6317 200.118 16.6317Z" fill="#0D6EFD"/>
<path d="M184.088 29.5469C184.036 29.5469 183.988 29.5219 183.954 29.479C183.896 29.4003 183.91 29.2895 183.982 29.2287L195.55 19.6531C195.625 19.5924 195.731 19.6067 195.789 19.6818C195.847 19.7604 195.834 19.8713 195.762 19.9321L184.194 29.5076C184.163 29.5326 184.125 29.5469 184.088 29.5469Z" fill="#0D6EFD"/>
<path d="M206.485 53.1427C206.379 53.1427 206.277 53.1105 206.185 53.039L200.684 48.8626C200.455 48.6874 200.404 48.3549 200.571 48.1118C200.739 47.8722 201.057 47.8186 201.289 47.9938L206.79 52.1701C207.019 52.3453 207.07 52.6778 206.902 52.921C206.8 53.0676 206.643 53.1427 206.485 53.1427Z" fill="#0D6EFD"/>
<path d="M196.436 45.1581C196.402 45.1581 196.364 45.1474 196.337 45.1224L184.382 36.0439C184.307 35.9866 184.29 35.8758 184.345 35.7936C184.399 35.7149 184.509 35.697 184.584 35.7542L196.539 44.8327C196.614 44.8899 196.631 45.0008 196.576 45.083C196.542 45.1331 196.487 45.1581 196.436 45.1581Z" fill="#0D6EFD"/>
<path d="M169.856 66.2708C169.805 66.2708 169.757 66.2636 169.706 66.2458C169.436 66.1599 169.282 65.8596 169.367 65.5771L171.34 58.8514C171.422 58.5689 171.709 58.408 171.979 58.4974C172.249 58.5832 172.403 58.8836 172.318 59.166L170.345 65.8918C170.277 66.1242 170.075 66.2708 169.856 66.2708Z" fill="#0D6EFD"/>
<path d="M173.492 53.506C173.475 53.506 173.458 53.5024 173.44 53.4989C173.352 53.4703 173.3 53.3702 173.328 53.2772L177.652 38.5313C177.68 38.4384 177.775 38.3811 177.864 38.4133C177.953 38.4419 178.004 38.5421 177.977 38.635L173.652 53.3809C173.632 53.456 173.567 53.506 173.492 53.506Z" fill="#0D6EFD"/>
<path d="M146.755 33.8086C146.475 33.8086 146.242 33.5691 146.242 33.2758C146.242 32.9791 146.468 32.7395 146.752 32.7359L153.544 32.6895H153.548C153.828 32.6895 154.06 32.929 154.06 33.2222C154.06 33.519 153.835 33.7586 153.551 33.7621L146.755 33.8086Z" fill="#0D6EFD"/>
<path d="M159.163 33.3682C159.071 33.3682 158.992 33.2895 158.992 33.1894C158.992 33.0893 159.067 33.0106 159.163 33.0106L174.02 32.9141C174.112 32.9141 174.191 32.9927 174.191 33.0928C174.191 33.193 174.116 33.2716 174.02 33.2716L159.163 33.3682C159.167 33.3682 159.167 33.3682 159.163 33.3682Z" fill="#0D6EFD"/>
<path d="M179.971 36.5787C179.496 36.5787 179.025 36.475 178.577 36.264C177.753 35.8743 177.12 35.1735 176.799 34.2867C176.478 33.4 176.508 32.4381 176.881 31.5728C177.254 30.7111 177.924 30.0496 178.772 29.7135C179.619 29.3774 180.539 29.4096 181.366 29.7993C182.19 30.1891 182.823 30.8899 183.144 31.7766C183.465 32.6634 183.434 33.6252 183.062 34.4905C182.689 35.3523 182.019 36.0138 181.171 36.3499C180.782 36.5036 180.378 36.5787 179.971 36.5787ZM179.975 30.5573C179.691 30.5573 179.411 30.611 179.137 30.7183C177.917 31.201 177.302 32.6312 177.763 33.9077C177.985 34.5263 178.426 35.0162 179.001 35.2879C179.575 35.5596 180.218 35.5811 180.809 35.3487C181.4 35.1163 181.869 34.655 182.129 34.0543C182.388 33.4536 182.409 32.7814 182.187 32.1628C181.965 31.5442 181.524 31.0544 180.949 30.7826C180.635 30.6324 180.307 30.5573 179.975 30.5573Z" fill="#0D6EFD"/>
</g>
<defs>
<clipPath id="clip0_126_323">
<rect width="207" height="74" fill="white"/>
</clipPath>
</defs>
</svg>
